<svg width="12" height="13" viewBox="0 0 12 13" fill="none" xmlns="http://www.w3.org/2000/svg">
<path d="M4.515 11.7453L5.68 10.7653C5.855 10.6153 6.145 10.6153 6.32 10.7653L7.485 11.7453C7.755 11.8803 8.085 11.7453 8.185 11.4553L8.40499 10.7903C8.45999 10.6303 8.405 10.3953 8.285 10.2753L7.15 9.13527C7.065 9.05527 7 8.89527 7 8.78027V7.35527C7 7.14527 7.155 7.04527 7.35 7.12527L9.805 8.18527C10.19 8.35027 10.505 8.14527 10.505 7.72527V7.08027C10.505 6.74527 10.255 6.36027 9.94499 6.23027L7.15 5.02527C7.07 4.99027 7 4.88527 7 4.79527V3.29527C7 2.82527 6.655 2.27027 6.235 2.05527C6.085 1.98027 5.91 1.98027 5.76 2.05527C5.34 2.27027 4.995 2.83027 4.995 3.30027V4.80027C4.995 4.89027 4.925 4.99527 4.845 5.03027L2.055 6.23527C1.745 6.36027 1.495 6.74527 1.495 7.08027V7.72527C1.495 8.14527 1.81 8.35027 2.195 8.18527L4.65 7.12527C4.84 7.04027 5 7.14527 5 7.35527V8.78027C5 8.89527 4.935 9.05527 4.855 9.13527L3.72 10.2753C3.6 10.3953 3.545 10.6253 3.6 10.7903L3.81999 11.4553C3.90999 11.7453 4.24 11.8853 4.515 11.7453Z" stroke="#1000E8" stroke-linecap="round" stroke-linejoin="round"/>
</svg>
