<svg width="24" height="24" viewBox="0 0 24 24" fill="none" xmlns="http://www.w3.org/2000/svg">
<path d="M4.25977 11.0201V15.9901C4.25977 17.8101 4.25977 17.8101 5.97977 18.9701L10.7098 21.7001C11.4198 22.1101 12.5798 22.1101 13.2898 21.7001L18.0198 18.9701C19.7398 17.8101 19.7398 17.8101 19.7398 15.9901V11.0201C19.7398 9.20006 19.7398 9.20006 18.0198 8.04006L13.2898 5.31006C12.5798 4.90006 11.4198 4.90006 10.7098 5.31006L5.97977 8.04006C4.25977 9.20006 4.25977 9.20006 4.25977 11.0201Z" stroke="#FF3E39" stroke-width="1.5" stroke-linecap="round" stroke-linejoin="round"/>
<path d="M17.5 7.63V5C17.5 3 16.5 2 14.5 2H9.5C7.5 2 6.5 3 6.5 5V7.56" stroke="#FF3E39" stroke-width="1.5" stroke-linecap="round" stroke-linejoin="round"/>
<path d="M12.6303 10.99L13.2003 11.88C13.2903 12.02 13.4903 12.16 13.6403 12.2L14.6603 12.46C15.2903 12.62 15.4603 13.16 15.0503 13.66L14.3803 14.47C14.2803 14.6 14.2003 14.83 14.2103 14.99L14.2703 16.04C14.3103 16.69 13.8503 17.02 13.2503 16.78L12.2703 16.39C12.1203 16.33 11.8703 16.33 11.7203 16.39L10.7403 16.78C10.1403 17.02 9.68027 16.68 9.72027 16.04L9.78027 14.99C9.79027 14.83 9.71027 14.59 9.61027 14.47L8.94027 13.66C8.53027 13.16 8.70027 12.62 9.33027 12.46L10.3503 12.2C10.5103 12.16 10.7103 12.01 10.7903 11.88L11.3603 10.99C11.7203 10.45 12.2803 10.45 12.6303 10.99Z" stroke="#FF3E39" stroke-width="1.5" stroke-linecap="round" stroke-linejoin="round"/>
</svg>
