<svg width="12" height="13" viewBox="0 0 12 13" fill="none" xmlns="http://www.w3.org/2000/svg">
<path d="M6.185 1.97531L10.685 3.7753C10.86 3.8453 11 4.0553 11 4.2403V4.9003C11 5.1753 10.775 5.4003 10.5 5.4003H1.5C1.225 5.4003 1 5.1753 1 4.9003V4.2403C1 4.0553 1.14 3.8453 1.315 3.7753L5.815 1.97531C5.915 1.93531 6.085 1.93531 6.185 1.97531Z" stroke="#1000E8" stroke-miterlimit="10" stroke-linecap="round" stroke-linejoin="round"/>
<path d="M11 11.9004H1V10.4004C1 10.1254 1.225 9.90039 1.5 9.90039H10.5C10.775 9.90039 11 10.1254 11 10.4004V11.9004Z" stroke="#1000E8" stroke-miterlimit="10" stroke-linecap="round" stroke-linejoin="round"/>
<path d="M2 9.90039V5.40039" stroke="#1000E8" stroke-miterlimit="10" stroke-linecap="round" stroke-linejoin="round"/>
<path d="M4 9.90039V5.40039" stroke="#1000E8" stroke-miterlimit="10" stroke-linecap="round" stroke-linejoin="round"/>
<path d="M6 9.90039V5.40039" stroke="#1000E8" stroke-miterlimit="10" stroke-linecap="round" stroke-linejoin="round"/>
<path d="M8 9.90039V5.40039" stroke="#1000E8" stroke-miterlimit="10" stroke-linecap="round" stroke-linejoin="round"/>
<path d="M10 9.90039V5.40039" stroke="#1000E8" stroke-miterlimit="10" stroke-linecap="round" stroke-linejoin="round"/>
<path d="M0.5 11.9004H11.5" stroke="#1000E8" stroke-miterlimit="10" stroke-linecap="round" stroke-linejoin="round"/>
</svg>
