<svg width="12" height="13" viewBox="0 0 12 13" fill="none" xmlns="http://www.w3.org/2000/svg">
<path d="M10.25 5.65039C11 5.65039 11 5.90039 11 6.40039V7.40039C11 7.90039 11 8.15039 10.25 8.15039" stroke="#1000E8" stroke-linecap="round" stroke-linejoin="round"/>
<path d="M4.99998 4.90039L4.05498 6.15039C3.85998 6.48539 4.09998 6.90039 4.48498 6.90039H5.63498C6.01998 6.90039 6.25998 7.31539 6.06998 7.65039L4.99998 8.90039" stroke="#1000E8" stroke-linecap="round" stroke-linejoin="round"/>
<path d="M3.5 10.4004C1.5 10.4004 1 9.90039 1 7.90039V5.90039C1 3.90039 1.5 3.40039 3.5 3.40039" stroke="#1000E8" stroke-linecap="round" stroke-linejoin="round"/>
<path d="M6.5 3.40039C8.5 3.40039 9 3.90039 9 5.90039V7.90039C9 9.90039 8.5 10.4004 6.5 10.4004" stroke="#1000E8" stroke-linecap="round" stroke-linejoin="round"/>
</svg>
