<svg width="12" height="13" viewBox="0 0 12 13" fill="none" xmlns="http://www.w3.org/2000/svg">
<path d="M10.25 5.25C11 5.25 11 5.5 11 6V7C11 7.5 11 7.75 10.25 7.75" stroke="#1000E8" stroke-linecap="round" stroke-linejoin="round"/>
<path d="M5.00059 4.5L4.05559 5.75C3.86059 6.085 4.10059 6.5 4.48559 6.5H5.63559C6.02059 6.5 6.26059 6.915 6.07059 7.25L5.00059 8.5" stroke="#1000E8" stroke-linecap="round" stroke-linejoin="round"/>
<path d="M3.5 10C1.5 10 1 9.5 1 7.5V5.5C1 3.5 1.5 3 3.5 3" stroke="#1000E8" stroke-linecap="round" stroke-linejoin="round"/>
<path d="M6.5 3C8.5 3 9 3.5 9 5.5V7.5C9 9.5 8.5 10 6.5 10" stroke="#1000E8" stroke-linecap="round" stroke-linejoin="round"/>
</svg>
