<svg width="57" height="56" viewBox="0 0 57 56" fill="none" xmlns="http://www.w3.org/2000/svg">
<path d="M22.4167 32.0833C22.4167 34.3466 24.1668 36.1666 26.3134 36.1666H30.7001C32.5667 36.1666 34.0834 34.5799 34.0834 32.5966C34.0834 30.4733 33.1501 29.7033 31.7734 29.2133L24.7501 26.7633C23.3734 26.2733 22.4401 25.5266 22.4401 23.3799C22.4401 21.4199 23.9567 19.8099 25.8234 19.8099H30.2101C32.3567 19.8099 34.1068 21.6299 34.1068 23.8933" stroke="#1000E8" stroke-width="2.625" stroke-linecap="round" stroke-linejoin="round"/>
<path d="M28.25 17.5V38.5" stroke="#1000E8" stroke-width="2.625" stroke-linecap="round" stroke-linejoin="round"/>
<path d="M51.5834 28C51.5834 40.88 41.1301 51.3333 28.2501 51.3333C15.3701 51.3333 4.91675 40.88 4.91675 28C4.91675 15.12 15.3701 4.66663 28.2501 4.66663" stroke="#1000E8" stroke-width="2.625" stroke-linecap="round" stroke-linejoin="round"/>
<path d="M39.9167 7V16.3333H49.2501" stroke="#1000E8" stroke-width="2.625" stroke-linecap="round" stroke-linejoin="round"/>
<path d="M51.5834 4.66663L39.9167 16.3333" stroke="#1000E8" stroke-width="2.625" stroke-linecap="round" stroke-linejoin="round"/>
</svg>
