<svg width="57" height="56" viewBox="0 0 57 56" fill="none" xmlns="http://www.w3.org/2000/svg">
<path d="M28.7492 32.2779H30.8881C33.2409 32.2779 35.1659 30.3529 35.1659 28.0001V6.61121H15.9159C12.7075 6.61121 9.90562 8.38646 8.45117 10.9959" stroke="#1000E8" stroke-width="2.625" stroke-linecap="round" stroke-linejoin="round"/>
<path d="M7.36084 38.6945C7.36084 42.2451 10.227 45.1112 13.7775 45.1112H15.9164C15.9164 42.7584 17.8414 40.8334 20.1942 40.8334C22.547 40.8334 24.472 42.7584 24.472 45.1112H33.0275C33.0275 42.7584 34.9525 40.8334 37.3053 40.8334C39.6581 40.8334 41.5831 42.7584 41.5831 45.1112H43.722C47.2725 45.1112 50.1386 42.2451 50.1386 38.6945V32.2778H43.722C42.5456 32.2778 41.5831 31.3153 41.5831 30.1389V23.7223C41.5831 22.5459 42.5456 21.5834 43.722 21.5834H46.4811L42.8237 15.1881C42.0537 13.862 40.642 13.0278 39.102 13.0278H35.1664V28.0001C35.1664 30.3528 33.2414 32.2778 30.8886 32.2778H28.7497" stroke="#1000E8" stroke-width="2.625" stroke-linecap="round" stroke-linejoin="round"/>
<path d="M20.1945 49.3889C22.5571 49.3889 24.4723 47.4737 24.4723 45.1112C24.4723 42.7486 22.5571 40.8334 20.1945 40.8334C17.832 40.8334 15.9167 42.7486 15.9167 45.1112C15.9167 47.4737 17.832 49.3889 20.1945 49.3889Z" stroke="#1000E8" stroke-width="2.625" stroke-linecap="round" stroke-linejoin="round"/>
<path d="M37.3054 49.3889C39.6679 49.3889 41.5831 47.4737 41.5831 45.1112C41.5831 42.7486 39.6679 40.8334 37.3054 40.8334C34.9428 40.8334 33.0276 42.7486 33.0276 45.1112C33.0276 47.4737 34.9428 49.3889 37.3054 49.3889Z" stroke="#1000E8" stroke-width="2.625" stroke-linecap="round" stroke-linejoin="round"/>
<path d="M50.1388 28V32.2778H43.7221C42.5458 32.2778 41.5833 31.3153 41.5833 30.1389V23.7223C41.5833 22.5459 42.5458 21.5834 43.7221 21.5834H46.4813L50.1388 28Z" stroke="#1000E8" stroke-width="2.625" stroke-linecap="round" stroke-linejoin="round"/>
<path d="M7.36084 19.4446H20.1942" stroke="#1000E8" stroke-width="2.625" stroke-linecap="round" stroke-linejoin="round"/>
<path d="M7.36084 25.8612H15.9164" stroke="#1000E8" stroke-width="2.625" stroke-linecap="round" stroke-linejoin="round"/>
<path d="M7.36084 32.2778H11.6386" stroke="#1000E8" stroke-width="2.625" stroke-linecap="round" stroke-linejoin="round"/>
</svg>
