<svg width="24" height="25" viewBox="0 0 24 25" fill="none" xmlns="http://www.w3.org/2000/svg">
<path d="M9.5 14.1338C9.5 15.0866 10.25 15.8527 11.17 15.8527H13.05C13.85 15.8527 14.5 15.1848 14.5 14.3499C14.5 13.4561 14.1 13.132 13.51 12.9257L10.5 11.8944C9.91 11.6881 9.51001 11.3738 9.51001 10.4702C9.51001 9.64509 10.16 8.96736 10.96 8.96736H12.84C13.76 8.96736 14.51 9.73349 14.51 10.6862" stroke="#1000E8" stroke-width="1.5" stroke-linecap="round" stroke-linejoin="round"/>
<path d="M12 7.99496V16.8349" stroke="#1000E8" stroke-width="1.5" stroke-linecap="round" stroke-linejoin="round"/>
<path d="M22 12.415C22 17.8368 17.52 22.2371 12 22.2371C6.48 22.2371 2 17.8368 2 12.415C2 6.9931 6.48 2.59276 12 2.59276" stroke="#1000E8" stroke-width="1.5" stroke-linecap="round" stroke-linejoin="round"/>
<path d="M17 3.57498V7.50386H21" stroke="#1000E8" stroke-width="1.5" stroke-linecap="round" stroke-linejoin="round"/>
<path d="M22 2.59276L17 7.50386" stroke="#1000E8" stroke-width="1.5" stroke-linecap="round" stroke-linejoin="round"/>
</svg>
