<svg width="24" height="25" viewBox="0 0 24 25" fill="none" xmlns="http://www.w3.org/2000/svg">
<path d="M22 11.7571V7.63181C22 4.19405 20.6 2.81894 17.1 2.81894H12.9C9.4 2.81894 8 4.19405 8 7.63181V8.71226H11.1C14.6 8.71226 16 10.0874 16 13.5251V16.57H17.1C20.6 16.57 22 15.1949 22 11.7571Z" stroke="#1000E8" stroke-width="1.5" stroke-linecap="round" stroke-linejoin="round"/>
<path d="M16 17.6504V13.5251C16 10.0874 14.6 8.71225 11.1 8.71225H6.9C3.4 8.71225 2 10.0874 2 13.5251V17.6504C2 21.0882 3.4 22.4633 6.9 22.4633H11.1C14.6 22.4633 16 21.0882 16 17.6504Z" stroke="#1000E8" stroke-width="1.5" stroke-linecap="round" stroke-linejoin="round"/>
<path d="M6.08008 15.5878L8.03008 17.5031L11.9201 13.6725" stroke="#1000E8" stroke-width="1.5" stroke-linecap="round" stroke-linejoin="round"/>
</svg>
