<svg width="24" height="25" viewBox="0 0 24 25" fill="none" xmlns="http://www.w3.org/2000/svg">
<g id="vuesax/linear/book-saved">
<g id="book-saved">
<path id="Vector" d="M22 4.76453V17.0788C22 18.0582 21.22 18.9764 20.26 19.0989L19.93 19.1397C17.75 19.4356 14.39 20.568 12.47 21.6495C12.21 21.8025 11.78 21.8025 11.51 21.6495L11.47 21.6291C9.54997 20.5579 6.20003 19.4356 4.03003 19.1397L3.73999 19.0989C2.77999 18.9764 2 18.0582 2 17.0788V4.75432C2 3.54023 2.96997 2.62203 4.15997 2.72405C6.25997 2.89749 9.43997 3.97897 11.22 5.11144L11.47 5.26444C11.76 5.44808 12.24 5.44808 12.53 5.26444L12.7 5.15223C13.33 4.75433 14.13 4.35643 15 3.99935V8.16194L17 6.80501L19 8.16194V2.83633C19.27 2.78532 19.53 2.75467 19.77 2.73427H19.83C21.02 2.63224 22 3.54024 22 4.76453Z" stroke="#1000E8" stroke-width="1.5" stroke-linecap="round" stroke-linejoin="round"/>
<path id="Vector_2" d="M12 5.6011V20.9047" stroke="#1000E8" stroke-width="1.5" stroke-linecap="round" stroke-linejoin="round"/>
<path id="Vector_3" d="M19 2.8363V8.16192L17 6.80498L15 8.16192V3.99933C16.31 3.4688 17.77 3.04035 19 2.8363Z" stroke="#1000E8" stroke-width="1.5" stroke-linecap="round" stroke-linejoin="round"/>
</g>
</g>
</svg>
