<svg width="24" height="26" viewBox="0 0 24 26" fill="none" xmlns="http://www.w3.org/2000/svg">
<g id="vuesax/linear/programming-arrow">
<g id="programming-arrow">
<path id="Vector" d="M19 17.3333V7.04167C19 5.85 18.1 4.875 17 4.875H12.5" stroke="#1000E8" stroke-width="1.5" stroke-linecap="round" stroke-linejoin="round"/>
<path id="Vector_2" d="M15 2.16669L12 4.87502L15 7.58335" stroke="#1000E8" stroke-width="1.5" stroke-linecap="round" stroke-linejoin="round"/>
<path id="Vector_3" d="M5 9.75006V17.3334" stroke="#1000E8" stroke-width="1.5" stroke-linecap="round" stroke-linejoin="round"/>
<path id="Vector_4" d="M5.25 9.20835C7.04493 9.20835 8.5 7.63202 8.5 5.68752C8.5 3.74302 7.04493 2.16669 5.25 2.16669C3.45507 2.16669 2 3.74302 2 5.68752C2 7.63202 3.45507 9.20835 5.25 9.20835Z" stroke="#1000E8" stroke-width="1.5" stroke-linecap="round" stroke-linejoin="round"/>
<path id="Vector_5" d="M5 23.8333C6.65685 23.8333 8 22.3782 8 20.5833C8 18.7884 6.65685 17.3333 5 17.3333C3.34315 17.3333 2 18.7884 2 20.5833C2 22.3782 3.34315 23.8333 5 23.8333Z" stroke="#1000E8" stroke-width="1.5" stroke-linecap="round" stroke-linejoin="round"/>
<path id="Vector_6" d="M19 23.8333C20.6569 23.8333 22 22.3782 22 20.5833C22 18.7884 20.6569 17.3333 19 17.3333C17.3431 17.3333 16 18.7884 16 20.5833C16 22.3782 17.3431 23.8333 19 23.8333Z" stroke="#1000E8" stroke-width="1.5" stroke-linecap="round" stroke-linejoin="round"/>
</g>
</g>
</svg>
