<svg width="24" height="24" viewBox="0 0 24 24" fill="none" xmlns="http://www.w3.org/2000/svg">
<g id="user-remove">
<path id="Vector" d="M12 11.9498C14.7614 11.9498 17 9.72056 17 6.97069C17 4.22082 14.7614 1.99161 12 1.99161C9.23858 1.99161 7 4.22082 7 6.97069C7 9.72056 9.23858 11.9498 12 11.9498Z" stroke="#1000E8" stroke-width="1.5" stroke-linecap="round" stroke-linejoin="round"/>
<path id="Vector_2" d="M3.41016 21.9079C3.41016 18.0541 7.26015 14.9372 12.0002 14.9372C12.9602 14.9372 13.8902 15.0666 14.7602 15.3056" stroke="#1000E8" stroke-width="1.5" stroke-linecap="round" stroke-linejoin="round"/>
<path id="Vector_3" d="M22 17.9247C22 18.2433 21.96 18.552 21.88 18.8508C21.79 19.2491 21.63 19.6375 21.42 19.9761C20.73 21.1312 19.46 21.9079 18 21.9079C16.97 21.9079 16.04 21.5195 15.34 20.8822C15.04 20.6233 14.78 20.3146 14.58 19.9761C14.21 19.3786 14 18.6715 14 17.9247C14 16.8492 14.43 15.8634 15.13 15.1464C15.86 14.3995 16.88 13.9414 18 13.9414C19.18 13.9414 20.25 14.4493 20.97 15.2659C21.61 15.9729 22 16.9089 22 17.9247Z" stroke="#1000E8" stroke-width="1.5" stroke-miterlimit="10" stroke-linecap="round" stroke-linejoin="round"/>
<g id="Group">
<path id="Vector_4" d="M19.0299 16.8691L16.9199 18.9703" stroke="#1000E8" stroke-width="1.5" stroke-miterlimit="10" stroke-linecap="round" stroke-linejoin="round"/>
<path id="Vector_5" d="M16.9399 16.8888L19.0599 18.99" stroke="#1000E8" stroke-width="1.5" stroke-miterlimit="10" stroke-linecap="round" stroke-linejoin="round"/>
</g>
</g>
</svg>
