<svg width="24" height="25" viewBox="0 0 24 25" fill="none" xmlns="http://www.w3.org/2000/svg">
<path d="M9 10.6441C10.1046 10.6441 11 9.76329 11 8.67671C11 7.59014 10.1046 6.70929 9 6.70929C7.89543 6.70929 7 7.59014 7 8.67671C7 9.76329 7.89543 10.6441 9 10.6441Z" stroke="#1000E8" stroke-width="1.5" stroke-linecap="round" stroke-linejoin="round"/>
<path d="M13 2.77444H9C4 2.77444 2 4.74187 2 9.66043V15.5627C2 20.4813 4 22.4487 9 22.4487H15C20 22.4487 22 20.4813 22 15.5627V10.6441" stroke="#1000E8" stroke-width="1.5" stroke-linecap="round" stroke-linejoin="round"/>
<path d="M16 5.71572L17.46 7.15194L21.36 3.31546" stroke="#1000E8" stroke-width="1.5" stroke-linecap="square" stroke-linejoin="round"/>
<path d="M2.66992 19.4484L7.59992 16.1923C8.38992 15.6709 9.52992 15.7299 10.2399 16.33L10.5699 16.6153C11.3499 17.2744 12.6099 17.2744 13.3899 16.6153L17.5499 13.1034C18.3299 12.4443 19.5899 12.4443 20.3699 13.1034L21.9999 14.4806" stroke="#1000E8" stroke-width="1.5" stroke-linecap="round" stroke-linejoin="round"/>
</svg>
