<svg width="24" height="24" viewBox="0 0 24 24" fill="none" xmlns="http://www.w3.org/2000/svg">
<path d="M22 15.1036C22 18.9106 18.87 21.9896 15 21.9896L16.05 20.2681" stroke="#1000E8" stroke-width="1.5" stroke-linecap="round" stroke-linejoin="round"/>
<path d="M2 9.20131C2 5.39434 5.13 2.31532 9 2.31532L7.95 4.03682" stroke="#1000E8" stroke-width="1.5" stroke-linecap="round" stroke-linejoin="round"/>
<path d="M13.6992 4.72543L17.6792 6.98796L21.6192 4.73528" stroke="#1000E8" stroke-width="1.5" stroke-linecap="round" stroke-linejoin="round"/>
<path d="M17.6797 10.9917V6.97812" stroke="#1000E8" stroke-width="1.5" stroke-linecap="round" stroke-linejoin="round"/>
<path d="M16.7396 2.5219L14.3396 3.8302C13.7996 4.12531 13.3496 4.87293 13.3496 5.48283V7.9815C13.3496 8.5914 13.7896 9.33901 14.3396 9.63413L16.7396 10.9425C17.2496 11.2278 18.0896 11.2278 18.6096 10.9425L21.0096 9.63413C21.5496 9.33901 21.9996 8.5914 21.9996 7.9815V5.48283C21.9996 4.87293 21.5596 4.12531 21.0096 3.8302L18.6096 2.5219C18.0996 2.24646 17.2596 2.24646 16.7396 2.5219Z" stroke="#1000E8" stroke-width="1.5" stroke-linecap="round" stroke-linejoin="round"/>
<path d="M2.34961 15.5463L6.31961 17.8088L10.2696 15.5561" stroke="#1000E8" stroke-width="1.5" stroke-linecap="round" stroke-linejoin="round"/>
<path d="M6.31934 21.8125V17.799" stroke="#1000E8" stroke-width="1.5" stroke-linecap="round" stroke-linejoin="round"/>
<path d="M5.39 13.3427L2.99001 14.651C2.45001 14.9462 2 15.6938 2 16.3037V18.8023C2 19.4122 2.44001 20.1599 2.99001 20.455L5.39 21.7633C5.9 22.0486 6.73999 22.0486 7.25999 21.7633L9.66 20.455C10.2 20.1599 10.65 19.4122 10.65 18.8023V16.3037C10.65 15.6938 10.21 14.9462 9.66 14.651L7.25999 13.3427C6.73999 13.0673 5.9 13.0673 5.39 13.3427Z" stroke="#1000E8" stroke-width="1.5" stroke-linecap="round" stroke-linejoin="round"/>
</svg>
