<svg width="24" height="24" viewBox="0 0 24 24" fill="none" xmlns="http://www.w3.org/2000/svg">
<path d="M21.998 16.7397V4.6697C21.998 3.4697 21.018 2.5797 19.828 2.6797H19.768C17.668 2.8597 14.478 3.9297 12.698 5.0497L12.528 5.1597C12.238 5.3397 11.758 5.3397 11.468 5.1597L11.218 5.0097C9.43805 3.8997 6.25805 2.8397 4.15805 2.6697C2.96805 2.5697 1.99805 3.4697 1.99805 4.6597V16.7397C1.99805 17.6997 2.77805 18.5997 3.73805 18.7197L4.02805 18.7597C6.19805 19.0497 9.54805 20.1497 11.468 21.1997L11.508 21.2197C11.778 21.3697 12.208 21.3697 12.468 21.2197C14.388 20.1597 17.748 19.0497 19.928 18.7597L20.258 18.7197C21.218 18.5997 21.998 17.6997 21.998 16.7397Z" stroke="#FF3E39" stroke-width="1.5" stroke-linecap="round" stroke-linejoin="round"/>
<path d="M12 5.49023V20.4902" stroke="#FF3E39" stroke-width="1.5" stroke-linecap="round" stroke-linejoin="round"/>
<path d="M7.75195 8.49023H5.50195" stroke="#FF3E39" stroke-width="1.5" stroke-linecap="round" stroke-linejoin="round"/>
<path d="M8.50195 11.4902H5.50195" stroke="#FF3E39" stroke-width="1.5" stroke-linecap="round" stroke-linejoin="round"/>
</svg>
