<svg width="37" height="36" viewBox="0 0 37 36" fill="none" xmlns="http://www.w3.org/2000/svg">
<path d="M35.25 26.8649C35.28 27.9899 34.98 29.055 34.44 29.97C34.14 30.51 33.735 31.005 33.285 31.41C32.25 32.37 30.885 32.955 29.37 33C27.18 33.045 25.245 31.92 24.18 30.195C23.61 29.31 23.265 28.245 23.25 27.12C23.205 25.23 24.045 23.52 25.395 22.395C26.415 21.555 27.705 21.03 29.115 21C32.43 20.925 35.175 23.5499 35.25 26.8649Z" stroke="#1000E8" stroke-width="1.5" stroke-miterlimit="10" stroke-linecap="round" stroke-linejoin="round"/>
<path d="M26.91 27.045L28.425 28.485L31.56 25.455" stroke="#1000E8" stroke-width="1.5" stroke-linecap="round" stroke-linejoin="round"/>
<path d="M5.50504 11.16L18.75 18.825L31.905 11.205" stroke="#1000E8" stroke-width="1.5" stroke-linecap="round" stroke-linejoin="round"/>
<path d="M18.75 32.4149V18.8099" stroke="#1000E8" stroke-width="1.5" stroke-linecap="round" stroke-linejoin="round"/>
<path d="M33.165 13.755V22.2451C33.165 22.3201 33.165 22.38 33.15 22.455C32.1 21.54 30.75 21 29.25 21C27.84 21 26.535 21.495 25.5 22.32C24.12 23.415 23.25 25.11 23.25 27C23.25 28.125 23.565 29.19 24.12 30.09C24.255 30.33 24.42 30.555 24.6 30.765L21.855 32.2801C20.145 33.2401 17.355 33.2401 15.645 32.2801L7.635 27.84C5.81999 26.835 4.33502 24.3151 4.33502 22.2451V13.755C4.33502 11.685 5.81999 9.16503 7.635 8.16003L15.645 3.72C17.355 2.76 20.145 2.76 21.855 3.72L29.865 8.16003C31.68 9.16503 33.165 11.685 33.165 13.755Z" stroke="#1000E8" stroke-width="1.5" stroke-linecap="round" stroke-linejoin="round"/>
</svg>
