<svg width="36" height="36" viewBox="0 0 36 36" fill="none" xmlns="http://www.w3.org/2000/svg">
<path d="M4.75525 11.1599L18.0002 18.8249L31.1552 11.2049" stroke="#FF3E39" stroke-width="2" stroke-linecap="round" stroke-linejoin="round"/>
<path d="M18.0002 32.4151V18.8101" stroke="#FF3E39" stroke-width="2" stroke-linecap="round" stroke-linejoin="round"/>
<path d="M32.4152 19.2451V13.755C32.4152 11.685 30.9302 9.16503 29.1152 8.16003L21.1052 3.72C19.3952 2.76 16.6052 2.76 14.8952 3.72L6.88518 8.16003C5.07018 9.16503 3.58521 11.685 3.58521 13.755V22.2451C3.58521 24.3151 5.07018 26.835 6.88518 27.84L14.8952 32.2801C15.7502 32.7601 16.8752 33 18.0002 33C19.1252 33 20.2502 32.7601 21.1052 32.2801" stroke="#FF3E39" stroke-width="2" stroke-linecap="round" stroke-linejoin="round"/>
<path d="M28.8 32.1C31.451 32.1 33.6 29.951 33.6 27.3C33.6 24.6491 31.451 22.5 28.8 22.5C26.1491 22.5 24 24.6491 24 27.3C24 29.951 26.1491 32.1 28.8 32.1Z" stroke="#FF3E39" stroke-width="2" stroke-linecap="round" stroke-linejoin="round"/>
<path d="M34.5 33L33 31.5" stroke="#FF3E39" stroke-width="2" stroke-linecap="round" stroke-linejoin="round"/>
</svg>
