<svg width="13" height="13" viewBox="0 0 13 13" fill="none" xmlns="http://www.w3.org/2000/svg">
<path d="M11.405 2.09592C10.635 4.01592 8.70501 6.62592 7.09001 7.92092L6.10501 8.71092C5.98001 8.80092 5.85501 8.88092 5.71501 8.93592C5.71501 8.84592 5.71001 8.74592 5.69501 8.65092C5.64001 8.23092 5.45001 7.84092 5.11501 7.50592C4.77501 7.16592 4.36001 6.96592 3.93501 6.91092C3.83501 6.90592 3.73501 6.89592 3.63501 6.90592C3.69001 6.75092 3.77501 6.60592 3.88001 6.48592L4.66001 5.50092C5.95001 3.88592 8.57001 1.94592 10.485 1.18092C10.78 1.07092 11.065 1.15092 11.245 1.33592C11.435 1.52092 11.525 1.80592 11.405 2.09592Z" stroke="#1000E8" stroke-linecap="round" stroke-linejoin="round"/>
<path d="M5.71501 8.93588C5.71501 9.48588 5.50501 10.0109 5.11001 10.4109C4.80501 10.7159 4.39001 10.9259 3.89501 10.9909L2.66501 11.1259C1.99501 11.2009 1.42001 10.6309 1.50001 9.95088L1.63501 8.72088C1.75501 7.62588 2.67001 6.92588 3.64001 6.90588C3.74001 6.90088 3.84501 6.90588 3.94001 6.91088C4.36501 6.96588 4.78001 7.16088 5.12001 7.50588C5.45501 7.84088 5.64501 8.23088 5.70001 8.65088C5.70501 8.74588 5.71501 8.84088 5.71501 8.93588Z" stroke="#1000E8" stroke-linecap="round" stroke-linejoin="round"/>
<path d="M7.62 7.36109C7.62 6.05609 6.56 4.99609 5.255 4.99609" stroke="#1000E8" stroke-linecap="round" stroke-linejoin="round"/>
</svg>
