<svg width="12" height="13" viewBox="0 0 12 13" fill="none" xmlns="http://www.w3.org/2000/svg">
<path d="M7.755 2.31543H4.245C3 2.31543 2.725 2.93543 2.565 3.69543L2 6.40043H10L9.435 3.69543C9.275 2.93543 9 2.31543 7.755 2.31543Z" stroke="#1000E8" stroke-linecap="round" stroke-linejoin="round"/>
<path d="M10.995 10.8104C11.05 11.3954 10.58 11.9004 9.97999 11.9004H9.03999C8.49999 11.9004 8.42499 11.6704 8.32999 11.3854L8.22999 11.0854C8.08999 10.6754 7.99999 10.4004 7.27999 10.4004H4.71999C3.99999 10.4004 3.89499 10.7104 3.76999 11.0854L3.66999 11.3854C3.57499 11.6704 3.49999 11.9004 2.95999 11.9004H2.01999C1.41999 11.9004 0.94999 11.3954 1.00499 10.8104L1.28499 7.76539C1.35499 7.01539 1.49999 6.40039 2.80999 6.40039H9.18999C10.5 6.40039 10.645 7.01539 10.715 7.76539L10.995 10.8104Z" stroke="#1000E8" stroke-linecap="round" stroke-linejoin="round"/>
<path d="M2 4.90039H1.5" stroke="#1000E8" stroke-linecap="round" stroke-linejoin="round"/>
<path d="M10.5 4.90039H10" stroke="#1000E8" stroke-linecap="round" stroke-linejoin="round"/>
<path d="M6 2.40039V3.40039" stroke="#1000E8" stroke-linecap="round" stroke-linejoin="round"/>
<path d="M5.25 3.40039H6.75" stroke="#1000E8" stroke-linecap="round" stroke-linejoin="round"/>
<path d="M3 8.40039H4.5" stroke="#1000E8" stroke-linecap="round" stroke-linejoin="round"/>
<path d="M7.5 8.40039H9" stroke="#1000E8" stroke-linecap="round" stroke-linejoin="round"/>
</svg>
