<svg width="24" height="24" viewBox="0 0 24 24" fill="none" xmlns="http://www.w3.org/2000/svg">
<path d="M22 15C22 18.87 18.87 22 15 22L16.05 20.25" stroke="#FF3E39" stroke-width="1.5" stroke-linecap="round" stroke-linejoin="round"/>
<path d="M2.00049 9.00049C2.00049 5.13049 5.13049 2.00049 9.00049 2.00049L7.95049 3.75049" stroke="#FF3E39" stroke-width="1.5" stroke-linecap="round" stroke-linejoin="round"/>
<path d="M13.7002 4.4502L17.6802 6.75018L21.6202 4.46021" stroke="#FF3E39" stroke-width="1.5" stroke-linecap="round" stroke-linejoin="round"/>
<path d="M17.6802 10.8203V6.74023" stroke="#FF3E39" stroke-width="1.5" stroke-linecap="round" stroke-linejoin="round"/>
<path d="M16.7401 2.21049L14.3401 3.54044C13.8001 3.84044 13.3501 4.60044 13.3501 5.22044V7.76048C13.3501 8.38048 13.7901 9.14047 14.3401 9.44047L16.7401 10.7705C17.2501 11.0605 18.0901 11.0605 18.6101 10.7705L21.0101 9.44047C21.5501 9.14047 22.0001 8.38048 22.0001 7.76048V5.22044C22.0001 4.60044 21.5601 3.84044 21.0101 3.54044L18.6101 2.21049C18.1001 1.93049 17.2601 1.93049 16.7401 2.21049Z" stroke="#FF3E39" stroke-width="1.5" stroke-linecap="round" stroke-linejoin="round"/>
<path d="M2.35059 15.4492L6.32059 17.7492L10.2706 15.4592" stroke="#FF3E39" stroke-width="1.5" stroke-linecap="round" stroke-linejoin="round"/>
<path d="M6.32031 21.8193V17.7393" stroke="#FF3E39" stroke-width="1.5" stroke-linecap="round" stroke-linejoin="round"/>
<path d="M5.39049 13.2095L2.99049 14.5395C2.45049 14.8395 2.00049 15.5995 2.00049 16.2195V18.7595C2.00049 19.3795 2.44049 20.1395 2.99049 20.4395L5.39049 21.7695C5.90049 22.0595 6.74048 22.0595 7.26048 21.7695L9.66049 20.4395C10.2005 20.1395 10.6505 19.3795 10.6505 18.7595V16.2195C10.6505 15.5995 10.2105 14.8395 9.66049 14.5395L7.26048 13.2095C6.74048 12.9295 5.90049 12.9295 5.39049 13.2095Z" stroke="#FF3E39" stroke-width="1.5" stroke-linecap="round" stroke-linejoin="round"/>
</svg>
