<svg width="36" height="36" viewBox="0 0 36 36" fill="none" xmlns="http://www.w3.org/2000/svg">
<path d="M13.9648 22.0503L16.2148 24.3003L22.2148 18.3003" stroke="black" stroke-width="2" stroke-linecap="round" stroke-linejoin="round"/>
<path d="M15 9H21C24 9 24 7.5 24 6C24 3 22.5 3 21 3H15C13.5 3 12 3 12 6C12 9 13.5 9 15 9Z" stroke="black" stroke-width="2" stroke-miterlimit="10" stroke-linecap="round" stroke-linejoin="round"/>
<path d="M24 6.0293C28.995 6.2993 31.5 8.1443 31.5 14.9993V23.9993C31.5 29.9993 30 32.9993 22.5 32.9993H13.5C6 32.9993 4.5 29.9993 4.5 23.9993V14.9993C4.5 8.1593 7.005 6.2993 12 6.0293" stroke="black" stroke-width="2" stroke-miterlimit="10" stroke-linecap="round" stroke-linejoin="round"/>
</svg>
