<svg width="24" height="24" viewBox="0 0 24 24" fill="none" xmlns="http://www.w3.org/2000/svg">
<path d="M8 12.2H15" stroke="#FF3E39" stroke-width="1.5" stroke-miterlimit="10" stroke-linecap="round" stroke-linejoin="round"/>
<path d="M8 16.1997H12.38" stroke="#FF3E39" stroke-width="1.5" stroke-miterlimit="10" stroke-linecap="round" stroke-linejoin="round"/>
<path d="M10 6.00024H14C16 6.00024 16 5.00024 16 4.00024C16 2.00024 15 2.00024 14 2.00024H10C9 2.00024 8 2.00024 8 4.00024C8 6.00024 9 6.00024 10 6.00024Z" stroke="#FF3E39" stroke-width="1.5" stroke-miterlimit="10" stroke-linecap="round" stroke-linejoin="round"/>
<path d="M16 4.02026C19.33 4.20026 21 5.43026 21 10.0003V16.0003C21 20.0003 20 22.0003 15 22.0003H9C4 22.0003 3 20.0003 3 16.0003V10.0003C3 5.44026 4.67 4.20026 8 4.02026" stroke="#FF3E39" stroke-width="1.5" stroke-miterlimit="10" stroke-linecap="round" stroke-linejoin="round"/>
</svg>
