<svg width="37" height="36" viewBox="0 0 37 36" fill="none" xmlns="http://www.w3.org/2000/svg">
<g id="vuesax/linear/copy-success">
<g id="copy-success">
<path id="Vector" d="M33.25 16.65V10.35C33.25 5.1 31.15 3 25.9 3H19.6C14.35 3 12.25 5.1 12.25 10.35V12H16.9C22.15 12 24.25 14.1 24.25 19.35V24H25.9C31.15 24 33.25 21.9 33.25 16.65Z" stroke="#1000E8" stroke-width="1.5" stroke-linecap="round" stroke-linejoin="round"/>
<path id="Vector_2" d="M24.25 25.65V19.35C24.25 14.1 22.15 12 16.9 12H10.6C5.35 12 3.25 14.1 3.25 19.35V25.65C3.25 30.9 5.35 33 10.6 33H16.9C22.15 33 24.25 30.9 24.25 25.65Z" stroke="#1000E8" stroke-width="1.5" stroke-linecap="round" stroke-linejoin="round"/>
<path id="Vector_3" d="M9.37012 22.5L12.2951 25.425L18.1301 19.575" stroke="#1000E8" stroke-width="1.5" stroke-linecap="round" stroke-linejoin="round"/>
</g>
</g>
</svg>
