<svg width="24" height="24" viewBox="0 0 24 24" fill="none" xmlns="http://www.w3.org/2000/svg">
<path d="M9.6 19.9998H14.4C18.4 19.9998 20 18.3998 20 14.3998V9.59976C20 5.59976 18.4 3.99976 14.4 3.99976H9.6C5.6 3.99976 4 5.59976 4 9.59976V14.3998C4 18.3998 5.6 19.9998 9.6 19.9998Z" stroke="#FF3E39" stroke-width="1.5" stroke-linecap="round" stroke-linejoin="round"/>
<path d="M10.5 16.9998H13.5C16 16.9998 17 15.9998 17 13.4998V10.4998C17 7.99976 16 6.99976 13.5 6.99976H10.5C8 6.99976 7 7.99976 7 10.4998V13.4998C7 15.9998 8 16.9998 10.5 16.9998Z" stroke="#FF3E39" stroke-width="1.5" stroke-linecap="round" stroke-linejoin="round"/>
<path d="M8.00977 4.00024V2.00024" stroke="#FF3E39" stroke-width="1.5" stroke-linecap="round" stroke-linejoin="round"/>
<path d="M12 4.00024V2.00024" stroke="#FF3E39" stroke-width="1.5" stroke-linecap="round" stroke-linejoin="round"/>
<path d="M16 4.00024V2.00024" stroke="#FF3E39" stroke-width="1.5" stroke-linecap="round" stroke-linejoin="round"/>
<path d="M20 8.00024H22" stroke="#FF3E39" stroke-width="1.5" stroke-linecap="round" stroke-linejoin="round"/>
<path d="M20 12H22" stroke="#FF3E39" stroke-width="1.5" stroke-linecap="round" stroke-linejoin="round"/>
<path d="M20 15.9998H22" stroke="#FF3E39" stroke-width="1.5" stroke-linecap="round" stroke-linejoin="round"/>
<path d="M16 20.0002V22.0002" stroke="#FF3E39" stroke-width="1.5" stroke-linecap="round" stroke-linejoin="round"/>
<path d="M12.0078 20.0002V22.0002" stroke="#FF3E39" stroke-width="1.5" stroke-linecap="round" stroke-linejoin="round"/>
<path d="M8.00977 20.0002V22.0002" stroke="#FF3E39" stroke-width="1.5" stroke-linecap="round" stroke-linejoin="round"/>
<path d="M2 8.00024H4" stroke="#FF3E39" stroke-width="1.5" stroke-linecap="round" stroke-linejoin="round"/>
<path d="M2 12H4" stroke="#FF3E39" stroke-width="1.5" stroke-linecap="round" stroke-linejoin="round"/>
<path d="M2 15.9998H4" stroke="#FF3E39" stroke-width="1.5" stroke-linecap="round" stroke-linejoin="round"/>
</svg>
