<svg width="158" height="158" viewBox="0 0 158 158" fill="none" xmlns="http://www.w3.org/2000/svg">
<rect width="158" height="158" fill="#EEF1F6"/>
<g clip-path="url(#clip0_1265_15190)">
<path d="M32.8579 83.7429C32.3145 84.2359 31.5299 84.4001 31.0385 84.463C30.0373 84.588 29.0019 84.2557 28.3412 83.4594C27.7987 82.8089 27.5203 81.9665 26.9906 81.2929C26.1539 80.2267 24.8163 79.5285 23.4384 79.7753C20.7148 80.2693 19.4791 83.4451 21.0189 85.6481C23.2198 88.7964 28.1692 88.2513 30.7094 86.0702C31.5003 85.3921 32.2388 84.6374 32.8579 83.7429Z" fill="#4D5969"/>
<path d="M125.143 83.7422C125.687 84.2362 126.469 84.4005 126.962 84.4625C127.963 84.5884 128.999 84.2565 129.659 83.4596C130.202 82.8082 130.481 81.9666 131.01 81.2931C131.848 80.2265 133.185 79.5283 134.563 79.7754C137.285 80.2689 138.521 83.445 136.98 85.6482C134.78 88.7959 129.832 88.2515 127.293 86.0706C126.501 85.3923 125.761 84.6371 125.143 83.7422Z" fill="#4D5969"/>
<path d="M116.073 66.9515C116.005 66.9491 109.504 66.9491 109.444 66.9513C108.732 66.9728 108.143 67.6326 108.109 68.3112C108.073 69.0322 108.7 69.7473 109.444 69.7831C109.513 69.7855 116.013 69.7855 116.073 69.7831C116.786 69.7614 117.375 69.102 117.408 68.4232C117.445 67.7016 116.818 66.9878 116.073 66.9515Z" fill="#4D5969"/>
<path d="M74.6732 81.0776C74.5824 80.7014 74.5341 80.3313 74.5081 79.9578C74.5037 79.4188 74.5037 78.6622 74.5037 77.9659C74.5716 75.5609 75.0206 71.3301 71.7586 71.3301C69.5556 71.3301 68.2503 73.1839 67.8804 73.79C67.8277 72.1001 66.4945 70.874 64.4579 70.874C63.1585 70.874 62.3867 71.9082 62.3867 71.9082C62.3867 71.9082 63.6543 72.3476 63.6543 74.0506C63.668 75.2703 63.6524 81.2077 63.6543 81.2328C63.7043 82.285 64.4394 83.2715 65.7544 83.2715C67.0694 83.2715 67.8855 82.2608 67.8855 81.2309V75.9649C68.0687 75.1042 68.5531 74.2256 69.2833 74.2256C70.2306 74.2256 70.2837 75.279 70.2881 75.279L70.2837 80.3764C70.2881 80.5424 70.3092 80.7014 70.3381 80.8574C70.3849 81.1231 70.4653 81.3703 70.5806 81.5972C71.0859 82.6239 72.2037 83.2932 73.7058 83.2932C75.0043 83.2932 75.7763 82.2599 75.7763 82.2599C75.7763 82.2599 75.0142 81.9913 74.6732 81.0776Z" fill="#4D5969"/>
<path d="M106.029 81.0775C105.937 80.7013 105.888 80.3312 105.864 79.9577L105.867 67.3414C105.867 66.1143 104.873 65.1196 103.646 65.1196C102.418 65.1196 101.424 66.1143 101.424 67.3414L101.427 78.5147C101.438 79.5212 101.339 80.5497 101.814 81.4743C102.317 82.5015 103.559 83.2931 105.059 83.2931C106.361 83.2931 107.132 82.2599 107.132 82.2599C107.132 82.2599 106.371 81.9912 106.029 81.0775Z" fill="#4D5969"/>
<path d="M56.3824 71.2202C53.048 71.2202 50.3457 73.9224 50.3457 77.2571C50.3457 80.5912 53.048 83.2934 56.3824 83.2934C59.7161 83.2934 62.4195 80.5912 62.4195 77.2571C62.4195 73.9224 59.7161 71.2202 56.3824 71.2202ZM56.4267 80.7294V80.7323C56.4219 80.7323 56.4178 80.7305 56.4134 80.7305C56.4086 80.7305 56.4047 80.7323 56.401 80.7323V80.7294C55.2612 80.7087 54.6897 79.3989 54.6897 77.2571C54.6897 75.1184 55.4137 73.807 56.401 73.7836C56.4046 73.7836 56.4088 73.7832 56.4134 73.7836C56.4176 73.7832 56.4216 73.7832 56.4267 73.7832C57.4127 73.8066 58.1375 75.1184 58.1375 77.2571C58.1375 79.3989 57.5671 80.7087 56.4267 80.7294Z" fill="#4D5969"/>
<path d="M88.2509 81.0775C88.1588 80.7013 88.1098 80.3312 88.0856 79.9577L88.0885 67.3414C88.0885 66.1143 87.094 65.1196 85.8668 65.1196C84.6397 65.1196 83.645 66.1143 83.645 67.3414L83.6361 73.3171C83.1018 72.5732 81.9247 71.3157 80.0701 71.3157C74.9676 71.3157 74.6451 80.4018 78.1442 82.6495C79.1306 83.2824 80.6183 83.4452 81.744 83.1527C82.5213 82.95 83.7466 82.1865 83.9436 81.2746C83.9716 81.3415 84.0016 81.4081 84.0357 81.4743C84.5393 82.5015 85.7807 83.2931 87.2813 83.2931C88.5832 83.2931 89.354 82.2599 89.354 82.2599C89.354 82.2599 88.5936 81.9912 88.2509 81.0775ZM81.6295 80.343V80.3448C81.6248 80.3448 81.6212 80.3444 81.6172 80.3444C81.612 80.3444 81.6094 80.3448 81.6035 80.3448V80.343C80.4636 80.3262 79.8931 79.1832 79.8931 77.3182C79.8931 75.4547 80.6162 74.3133 81.6035 74.2924V74.2906C81.6095 74.2906 81.612 74.2924 81.6172 74.2924C81.6212 74.2924 81.6248 74.2906 81.6295 74.2906V74.2924C82.6178 74.3133 83.3411 75.4547 83.3411 77.3182C83.3411 79.1832 82.7695 80.3261 81.6295 80.343Z" fill="#4D5969"/>
<path d="M99.8111 79.5582C99.8111 79.5582 99.1595 80.4511 96.6317 80.4511C94.1038 80.4511 93.5614 78.4859 93.5614 78.4859C97.2452 78.4859 100.335 78.2392 100.335 75.2564C100.335 72.2742 96.9643 71.2905 94.9656 71.2905C91.6652 71.2905 89.2539 73.9226 89.2539 77.3968C89.2539 81.3095 92.3938 83.2934 95.0004 83.2934C99.5909 83.2934 99.8111 79.5582 99.8111 79.5582ZM93.3225 76.5723C93.4518 75.6202 93.6799 74.4203 94.5363 73.8646C95.2476 73.4026 96.2435 73.9285 96.2587 74.818C96.2749 75.7574 95.6674 76.3972 94.8218 76.5752C94.732 76.5944 93.3101 76.6655 93.3225 76.5723Z" fill="#4D5969"/>
<path d="M117.586 79.5582C117.586 79.5582 116.935 80.4511 114.407 80.4511C111.879 80.4511 111.337 78.4859 111.337 78.4859C115.021 78.4859 118.111 78.2392 118.111 75.2564C118.111 72.2742 114.74 71.2905 112.741 71.2905C109.441 71.2905 107.029 73.9226 107.029 77.3968C107.029 81.3095 110.169 83.2934 112.776 83.2934C117.366 83.2934 117.586 79.5582 117.586 79.5582ZM111.098 76.5723C111.227 75.6202 111.455 74.4203 112.312 73.8646C113.023 73.4026 114.019 73.9285 114.034 74.818C114.05 75.7574 113.443 76.3972 112.597 76.5752C112.507 76.5944 111.085 76.6655 111.098 76.5723Z" fill="#4D5969"/>
<path d="M125.921 79.8804H123.39C123.576 79.8804 125.448 78.3014 126.07 77.775C127.696 76.3949 130.62 74.4036 129.768 71.8242L129.77 71.8423C129.613 71.228 129.14 70.8735 129.14 70.8735C129.14 70.8735 128.964 71.375 128.362 71.5994C128.117 71.6588 127.871 71.7038 127.626 71.7183C127.424 71.7219 120.55 71.7183 120.55 71.7183C119.621 71.7171 118.841 72.4648 118.829 73.3467C118.818 74.2361 119.553 74.9495 120.495 74.9622L124.505 74.9877C122.646 76.0243 120.427 77.252 119.3 79.1265C118.656 80.2024 117.967 81.8611 118.229 83.1335C119.12 82.3438 121.458 81.5794 123.237 81.9509C123.904 82.0901 124.612 82.4303 125.188 82.7904C128.526 84.8783 130.532 80.7947 128.936 78.9947C128.936 78.9947 128.026 79.8804 125.921 79.8804Z" fill="#4D5969"/>
<path d="M50.6715 82.4206C48.6242 80.1756 47.9837 76.4423 47.8576 73.961C47.749 71.8172 47.865 68.1046 49.5543 67.0241C48.9888 66.3132 47.8732 66.0269 47.0255 66.0269C45.1209 66.0269 44.2028 67.2955 43.5514 68.2077C43.3363 68.5091 40.1336 72.9273 40.1336 72.9273C40.1336 72.9273 37.4396 68.7598 37.1086 68.2592C36.651 67.5683 35.7942 66.2989 34.2883 66.0792C33.6399 65.9845 31.9578 65.8984 31.0422 67.155C32.6203 68.4177 32.5809 71.6334 32.2382 73.8288C31.2102 80.4186 28.4062 81.0254 28.4062 81.0254C29.8425 84.9045 33.5414 83.3718 34.5867 80.2792C35.2636 78.2689 35.7008 75.7243 35.8016 73.6141L39.8609 79.841C39.8609 79.841 44.4573 73.6335 44.4573 73.639C43.7003 84.617 47.4705 87.7291 50.7675 87.7291C54.0672 87.7291 55.1901 84.7115 55.1901 84.7115C53.4059 84.6038 51.8444 83.7065 50.6715 82.4206Z" fill="#4D5969"/>
<path d="M60.9682 85.9913C61.0079 86.1526 61.0286 86.3111 61.0391 86.4706C61.0395 86.519 61.0361 92.2139 61.0389 92.282C61.0532 92.7605 61.4958 93.1553 61.9509 93.1778C62.4349 93.2023 62.914 92.7816 62.9382 92.282C62.9403 92.2169 62.9382 87.0882 62.9382 87.0882C62.9338 86.6576 62.9758 86.2173 62.7727 85.8219C62.557 85.382 62.0256 85.043 61.3837 85.043C60.8261 85.043 60.4961 85.4856 60.4961 85.4856C60.4961 85.4856 60.8217 85.6003 60.9682 85.9913Z" fill="#4D5969"/>
<path d="M121.174 92.23C121.135 92.0687 121.114 91.9105 121.103 91.7505C121.103 91.7022 121.106 86.0076 121.104 85.9399C121.089 85.4612 120.647 85.0664 120.191 85.0435C119.708 85.0194 119.229 85.4401 119.204 85.9399C119.202 86.005 119.204 91.1333 119.204 91.1333C119.209 91.5637 119.167 92.0038 119.37 92.4C119.586 92.8397 120.117 93.1783 120.759 93.1783C121.316 93.1783 121.646 92.7361 121.646 92.7361C121.646 92.7361 121.321 92.6208 121.174 92.23Z" fill="#4D5969"/>
<path d="M86.8102 87.991C85.8227 87.991 85.2381 88.8214 85.0726 89.093L85.0669 89.0972C85.0667 88.8225 85.0658 88.6053 85.0658 88.5943C85.0513 88.116 84.6089 87.7586 84.154 87.7365C83.6707 87.712 83.1912 88.0954 83.1671 88.5943C83.1656 88.6592 83.1656 92.23 83.1671 92.2783C83.1819 92.7559 83.6241 93.1506 84.0794 93.1732C84.5627 93.1972 85.0416 92.777 85.0658 92.2783C85.0669 92.2414 85.0675 91.0761 85.0671 90.0725L85.0749 90.0671C85.1565 89.6817 85.3735 89.2878 85.7012 89.2878C86.1255 89.2878 86.1489 89.7599 86.151 89.7599L86.1467 92.2782C86.1615 92.7558 86.6037 93.1505 87.059 93.1731C87.5423 93.1971 88.0212 92.7769 88.0454 92.2782L88.0429 90.9621C88.0429 89.6089 88.184 87.9847 86.8102 87.991Z" fill="#4D5969"/>
<path d="M111.084 87.9915C110.096 87.9915 109.512 88.8219 109.346 89.0935L109.34 89.0977C109.34 88.823 109.339 88.6057 109.339 88.5948C109.325 88.1165 108.882 87.7591 108.428 87.7369C107.944 87.7125 107.465 88.0958 107.441 88.5948C107.439 88.6597 107.439 92.2305 107.441 92.2787C107.455 92.7564 107.898 93.1511 108.353 93.1737C108.836 93.1977 109.315 92.7775 109.339 92.2787C109.34 92.2419 109.341 91.0766 109.341 90.073L109.348 90.0676C109.43 89.6821 109.647 89.2882 109.975 89.2882C110.399 89.2882 110.422 89.7604 110.424 89.7604L110.42 92.2786C110.435 92.7563 110.877 93.151 111.332 93.1736C111.816 93.1976 112.295 92.7774 112.319 92.2786L112.316 90.9626C112.316 89.6094 112.458 87.9852 111.084 87.9915Z" fill="#4D5969"/>
<path d="M67.5308 87.9915C66.5435 87.9915 65.9588 88.8219 65.7933 89.0935L65.7878 89.0977C65.7873 88.823 65.7867 88.6057 65.7867 88.5948C65.7721 88.1165 65.3299 87.7591 64.8746 87.7369C64.3915 87.7125 63.9118 88.0958 63.888 88.5948C63.8863 88.6597 63.8863 92.2305 63.888 92.2787C63.9027 92.7564 64.3451 93.1511 64.8002 93.1737C65.2833 93.1977 65.7622 92.7775 65.7867 92.2787C65.7878 92.2419 65.7882 91.0766 65.7878 90.073L65.7958 90.0676C65.8772 89.6821 66.0944 89.2882 66.4221 89.2882C66.8463 89.2882 66.8697 89.7604 66.8719 89.7604L66.8679 92.2786C66.8822 92.7563 67.3246 93.151 67.7797 93.1736C68.2632 93.1976 68.7421 92.7774 68.7663 92.2786L68.7636 90.9626C68.7636 89.6094 68.9049 87.9852 67.5308 87.9915Z" fill="#4D5969"/>
<path d="M104.201 87.7524C102.707 87.7524 101.496 88.9628 101.496 90.4569C101.496 91.9511 102.707 93.1611 104.201 93.1611C105.694 93.1611 106.906 91.9511 106.906 90.4569C106.906 88.9628 105.694 87.7524 104.201 87.7524ZM104.221 92.0125V92.0137C104.218 92.0137 104.216 92.0133 104.214 92.0133C104.212 92.0133 104.21 92.0137 104.209 92.0137V92.0125C103.698 92.0026 103.442 91.4166 103.442 90.4569C103.442 89.4987 103.766 88.9114 104.209 88.9008C104.21 88.9008 104.212 88.9006 104.214 88.9008C104.216 88.9006 104.218 88.9006 104.221 88.9006C104.662 88.9112 104.986 89.4987 104.986 90.4569C104.986 91.4166 104.731 92.0026 104.221 92.0125Z" fill="#4D5969"/>
<path d="M94.0993 88.529C94.0837 88.0284 93.6126 87.6147 93.1364 87.5909C92.6295 87.5658 92.1278 88.0061 92.1023 88.529C92.1019 88.5653 92.0975 88.6431 92.0975 88.6573C91.8571 88.3237 91.3305 87.7604 90.4993 87.7604C88.2132 87.7604 88.0683 91.8315 89.6362 92.8385C90.0786 93.1221 90.7451 93.1946 91.2498 93.0639C91.5347 92.9894 91.9545 92.7463 92.1456 92.4359C92.2626 92.8357 92.6586 93.1402 93.0656 93.1605C93.5719 93.1856 94.0738 92.7459 94.0993 92.2227C94.1014 92.1546 94.1008 88.5748 94.0993 88.529ZM91.1979 91.8054V91.806C91.1964 91.806 91.1943 91.8058 91.1926 91.8058C91.1901 91.8058 91.1889 91.806 91.1865 91.806V91.8054C90.6756 91.7974 90.4202 91.285 90.4202 90.4495C90.4202 89.6148 90.7439 89.1035 91.1865 89.0938V89.0932C91.1888 89.0932 91.1901 89.0938 91.1926 89.0938C91.1943 89.0938 91.1965 89.0932 91.1979 89.0932V89.0938C91.6405 89.1034 91.9653 89.6148 91.9653 90.4495C91.9653 91.285 91.7086 91.7974 91.1979 91.8054Z" fill="#4D5969"/>
<path d="M118.353 88.529C118.338 88.0284 117.867 87.6147 117.39 87.5909C116.884 87.5658 116.382 88.0061 116.357 88.529C116.356 88.5653 116.351 88.6431 116.351 88.6573C116.112 88.3237 115.584 87.7604 114.753 87.7604C112.467 87.7604 112.322 91.8315 113.89 92.8385C114.333 93.1221 114.999 93.1946 115.503 93.0639C115.788 92.9894 116.209 92.7463 116.4 92.4359C116.516 92.8357 116.913 93.1402 117.319 93.1605C117.826 93.1856 118.328 92.7459 118.353 92.2227C118.355 92.1546 118.354 88.5748 118.353 88.529ZM115.452 91.8054V91.806C115.45 91.806 115.449 91.8058 115.447 91.8058C115.444 91.8058 115.443 91.806 115.44 91.806V91.8054C114.93 91.7974 114.674 91.285 114.674 90.4495C114.674 89.6148 114.998 89.1035 115.44 89.0938V89.0932C115.443 89.0932 115.444 89.0938 115.447 89.0938C115.448 89.0938 115.45 89.0932 115.452 89.0932V89.0938C115.895 89.1034 116.219 89.6148 116.219 90.4495C116.219 91.285 115.963 91.7974 115.452 91.8054Z" fill="#4D5969"/>
<path d="M100.9 89.0386C100.877 88.5669 100.507 88.197 100.04 88.1576C100.012 88.1546 99.9858 88.1489 99.9588 88.1489C99.5362 88.1489 99.004 88.5146 99.004 88.9768L99.0063 90.7279H99.004C99.0099 91.2741 99.0033 92.2607 99.004 92.2719C99.0267 92.7436 99.3974 93.1137 99.8639 93.1529C99.8924 93.1565 99.9177 93.1616 99.9451 93.1616C100.368 93.1616 100.9 92.796 100.9 92.3339L100.898 90.8709H100.9C100.894 90.3241 100.901 89.0494 100.9 89.0386Z" fill="#4D5969"/>
<path d="M100.892 86.6705C100.892 87.1899 100.47 87.6108 99.9509 87.6108C99.4307 87.6108 99.0098 87.1899 99.0098 86.6705C99.0098 86.1501 99.4307 85.7285 99.9509 85.7285C100.47 85.7285 100.892 86.1501 100.892 86.6705Z" fill="#4D5969"/>
<path d="M81.6555 87.926C81.0916 87.9492 80.8128 88.3693 80.429 88.8969C80.4263 88.9011 80.4295 88.6531 80.4293 88.6436C80.4145 88.1658 79.9725 87.771 79.5181 87.7481C79.0339 87.724 78.555 88.1443 78.531 88.6436V92.2898H78.5293C78.5438 92.7681 78.9858 93.1631 79.4411 93.1854C79.9202 93.209 80.3941 92.7964 80.4263 92.3038H80.4306L80.4301 89.9941C80.4588 89.6554 80.6064 89.2324 80.8789 89.2345C81.2641 89.2381 80.866 90.1699 81.75 90.1699C83.0178 90.1699 83.1531 87.8642 81.6555 87.926Z" fill="#4D5969"/>
<path d="M77.7829 91.4852C77.7829 91.4852 77.4906 91.8854 76.357 91.8854C75.2229 91.8854 74.9789 91.0042 74.9789 91.0042C76.6319 91.0042 78.018 90.8933 78.018 89.5553C78.018 88.2175 76.506 87.7764 75.6094 87.7764C74.1289 87.7764 73.0469 88.9568 73.0469 90.5152C73.0469 92.2707 74.4555 93.1606 75.625 93.1606C77.6842 93.1606 77.7829 91.4852 77.7829 91.4852ZM74.8718 90.1453C74.9296 89.7183 75.0322 89.1799 75.4169 88.9309C75.7357 88.7236 76.1826 88.9596 76.1895 89.3583C76.1967 89.7799 75.9242 90.0669 75.5449 90.1468C75.5046 90.1552 74.8661 90.1872 74.8718 90.1453Z" fill="#4D5969"/>
<path d="M72.9332 92.1616C72.9332 92.1616 72.4396 93.1614 71.5269 93.1614C70.7758 93.1614 69.8513 92.498 69.8127 91.5377C69.8121 91.5288 69.8075 90.147 69.8039 88.992H69.5489C69.4157 88.992 69.1797 88.9125 69.1797 88.5654C69.1797 88.2185 69.4452 88.1449 69.5763 88.1449H69.8018C69.8007 87.7411 69.8003 87.4636 69.8009 87.4463C69.8248 86.9482 70.303 86.529 70.7853 86.5532C71.2393 86.576 71.692 86.9693 71.7064 87.4463V88.1445H72.5102C72.6216 88.1445 72.8793 88.2173 72.8793 88.5709C72.8793 88.9243 72.6216 88.992 72.4824 88.992H71.7064V91.113C71.7064 91.8013 72.2989 92.1585 72.9358 92.1606" fill="#4D5969"/>
<path d="M98.3373 92.1616C98.3373 92.1616 97.8435 93.1614 96.9312 93.1614C96.1799 93.1614 95.2554 92.498 95.217 91.5377C95.2162 91.5288 95.2118 90.147 95.208 88.992H94.953C94.8195 88.992 94.584 88.9125 94.584 88.5654C94.584 88.2185 94.8493 88.1449 94.9806 88.1449H95.2058C95.2046 87.7411 95.2044 87.4636 95.205 87.4463C95.2291 86.9482 95.7071 86.529 96.1894 86.5532C96.6434 86.576 97.0959 86.9693 97.1105 87.4463V88.1445H97.9143C98.0254 88.1445 98.2833 88.2173 98.2833 88.5709C98.2833 88.9243 98.0254 88.992 97.8863 88.992H97.1105V91.113C97.1105 91.8013 97.703 92.1585 98.3399 92.1606" fill="#4D5969"/>
</g>
<defs>
<clipPath id="clip0_1265_15190">
<rect width="118.5" height="29.262" fill="white" transform="translate(19.75 64.522)"/>
</clipPath>
</defs>
</svg>
