<svg width="158" height="158" viewBox="0 0 158 158" fill="none" xmlns="http://www.w3.org/2000/svg">
<rect width="158" height="158" fill="#EEF1F6"/>
<g clip-path="url(#clip0_1265_15191)">
<path d="M87.3171 89.6407H91.9948V84.9631L75.3632 68.3315H70.6855V73.0092L76.4027 79.246L70.6855 84.9631V89.6407H75.3632L81.0803 83.9236L87.3171 89.6407Z" fill="#4D5969"/>
<path d="M86.2773 68.3315H91.9944V74.0486H86.2773V68.3315Z" fill="#4D5969"/>
<path d="M110.184 85.4833L112.263 89.6412H116.421V84.9636L109.144 68.8518V68.332H102.907V68.8518L95.1113 84.9636V89.6412H99.789L101.868 85.4833H110.184ZM106.026 74.0491L108.624 80.8057H103.427L106.026 74.0491Z" fill="#4D5969"/>
<path d="M60.8085 85.4833L62.8874 89.6412H67.5651V84.9636L59.769 68.8518V68.332H53.5322V68.8518L46.2559 84.9636V89.6412H50.4138L52.4927 85.4833H60.8085ZM56.6506 74.0491L59.2493 80.8057H54.0519L56.6506 74.0491Z" fill="#4D5969"/>
<path d="M127.335 81.8447L134.091 89.6407H137.73V85.4829L134.091 81.325L134.611 80.8052C135.417 80.4554 136.129 79.9213 136.69 79.246C137.682 78.0863 138.234 76.6143 138.249 75.0881C138.216 74.0858 137.966 73.1027 137.518 72.2057C137.069 71.3087 136.432 70.5191 135.651 69.8908C134.29 68.7692 132.674 68.3315 130.453 68.3315H120.059V89.6407H125.256V81.8447H127.335ZM125.256 77.1671V73.0092H130.973C132.03 73.0092 132.532 74.031 132.532 75.0881C132.532 76.1453 132.03 77.1671 130.973 77.1671H125.256Z" fill="#4D5969"/>
<path d="M37.4211 89.6407H42.6184V68.3315H36.9013L36.3816 68.8513L31.1842 77.6868L25.9868 68.8513L25.4671 68.3315H19.75V89.6407H24.9474V78.7263L29.1053 85.4829H33.2632L37.4211 78.7263V89.6407Z" fill="#4D5969"/>
</g>
<defs>
<clipPath id="clip0_1265_15191">
<rect width="118.5" height="21.3092" fill="white" transform="translate(19.75 68.3315)"/>
</clipPath>
</defs>
</svg>
