<svg width="158" height="158" viewBox="0 0 158 158" fill="none" xmlns="http://www.w3.org/2000/svg">
<rect width="158" height="158" fill="#EEF1F6"/>
<path fill-rule="evenodd" clip-rule="evenodd" d="M127.129 89.4343H131.631V73.4131H127.129V89.4343Z" fill="#4D5969"/>
<path fill-rule="evenodd" clip-rule="evenodd" d="M138.251 73.4131V89.4343H133.75V73.4131H138.251Z" fill="#4D5969"/>
<path fill-rule="evenodd" clip-rule="evenodd" d="M29.3488 79.6357H25.7079V73.4131H19.75V89.4343H25.7079V81.4902H29.3488V89.4343H35.3072V73.4131H29.3488V79.6357Z" fill="#4D5969"/>
<path fill-rule="evenodd" clip-rule="evenodd" d="M57.32 79.3711L56.9556 78.3122H52.0566V89.4345H56.9556V82.7478C56.9556 81.2911 57.8828 80.497 58.6771 80.497C59.3389 80.497 60.1993 80.6293 60.1993 82.086V89.4345H65.0983V82.2184C65.0983 78.1799 60.5643 76.5914 57.32 79.3711Z" fill="#4D5969"/>
<path fill-rule="evenodd" clip-rule="evenodd" d="M107.632 84.7667L105.348 78.312H102.005L99.7208 85.0314L97.3375 78.312H92.6705H92.6371H90.784L88.4334 83.9718L85.1235 78.312H79.5293L86.1163 89.5666L85.2559 91.6845C84.9577 92.347 84.2445 92.3798 84.1048 91.7507C84.1048 90.6132 83.1825 89.6916 82.045 89.6916C80.9074 89.6916 79.9852 90.6132 79.9852 91.7507C79.9932 92.9426 81.1846 94.4983 83.5345 94.3988C85.885 94.2998 86.8777 92.347 87.2087 91.5194L92.6526 78.3554L96.5766 89.4343H100.151L102.336 83.0452L104.587 89.4343H107.963L111.77 78.312H109.817L107.632 84.7667Z" fill="#4D5969"/>
<path fill-rule="evenodd" clip-rule="evenodd" d="M43.7476 77.7466C39.9992 77.7466 36.9609 80.5338 36.9609 83.9718C36.9609 87.411 39.9992 90.1982 43.7476 90.1982C47.4967 90.1982 50.5357 87.411 50.5357 83.9718C50.5357 80.5338 47.4967 77.7466 43.7476 77.7466ZM45.4363 86.8845C45.4363 87.8173 44.6804 88.5732 43.7476 88.5732C42.8161 88.5732 42.0602 87.8173 42.0602 86.8845V81.0596C42.0602 80.1275 42.8161 79.3723 43.7476 79.3723C44.6804 79.3723 45.4363 80.1275 45.4363 81.0596V86.8845Z" fill="#4D5969"/>
<path fill-rule="evenodd" clip-rule="evenodd" d="M80.0738 84.8657C80.1096 84.6051 80.1281 84.2415 80.1281 83.9718C80.1281 80.5338 77.0892 77.7466 73.3408 77.7466C69.5917 77.7466 66.5527 80.5338 66.5527 83.9718C66.5527 87.411 69.5917 90.1982 73.3408 90.1982C75.9164 90.1982 78.1569 88.8818 79.3073 86.9427L77.8079 86.3879C76.9018 87.7727 75.2403 88.7 73.3408 88.7C72.408 88.7 71.6521 87.8173 71.6521 86.8845V84.8662L80.0738 84.8657ZM71.6521 81.0596C71.6521 80.1275 72.408 79.3723 73.3408 79.3723C74.2729 79.3723 75.0288 80.1275 75.0288 81.0596V83.2772H71.6521V81.0596Z" fill="#4D5969"/>
<path fill-rule="evenodd" clip-rule="evenodd" d="M125.421 84.8657C125.457 84.6051 125.476 84.2415 125.476 83.9718C125.476 80.5338 122.437 77.7466 118.688 77.7466C114.939 77.7466 111.9 80.5338 111.9 83.9718C111.9 87.411 114.939 90.1982 118.688 90.1982C121.264 90.1982 123.504 88.8818 124.655 86.9427L123.155 86.3879C122.249 87.7727 120.588 88.7 118.688 88.7C117.756 88.7 117 87.8173 117 86.8845V84.8662L125.421 84.8657ZM117 81.0596C117 80.1275 117.756 79.3723 118.688 79.3723C119.621 79.3723 120.376 80.1275 120.376 81.0596V83.2772H117V81.0596Z" fill="#4D5969"/>
</svg>
