<svg width="158" height="158" viewBox="0 0 158 158" fill="none" xmlns="http://www.w3.org/2000/svg">
<rect width="158" height="158" fill="#EEF1F6"/>
<path d="M74.562 75.5015C74.562 71.4972 71.9349 68.4537 66.5209 68.4537H55.6288V89.501H60.7547V73.0024H66.553C68.6995 73.0024 69.4679 74.2202 69.4679 75.6295C69.4679 77.0712 68.6672 78.2566 66.5206 78.2566H61.5552L68.603 89.501H74.4337C74.4337 89.501 69.628 81.9405 69.6604 81.9405C72.64 81.236 74.562 79.1536 74.562 75.5015ZM47.0433 68.4537H52.1692V89.5013H47.0433V68.4537ZM33.9409 81.5561H29.6273L32.8193 75.0851H32.8838L40.0597 89.501H45.9542L35.2222 68.4537H30.6734L19.9414 89.501H25.7076L27.4461 85.9772H36.0871L33.9409 81.5561ZM93.2718 78.5771C94.906 77.6798 95.7709 76.2384 95.7709 74.124C95.7709 70.7282 93.24 68.4537 88.9794 68.4537H76.9972V89.501H89.4599C93.8165 89.501 96.6679 87.1623 96.6679 83.6064C96.6676 81.14 95.2903 79.2819 93.2718 78.5771ZM82.1237 72.9065H88.9794C90.0046 72.9065 90.8054 73.7073 90.8054 74.7646C90.8054 75.822 90.0046 76.6227 88.947 76.6227H82.1234V72.9065H82.1237ZM89.1071 85.0799H82.1234V80.7872H89.1071C90.3566 80.7872 91.3177 81.6845 91.3177 82.9016C91.318 84.1509 90.3566 85.0799 89.1071 85.0799ZM112.846 80.2107C112.846 83.4054 111.372 85.1762 108.457 85.1762C105.574 85.1762 104.1 83.4054 104.1 80.2107V68.4537H98.8465V79.8263C98.8465 86.3298 102.274 89.9498 108.457 89.9498C114.64 89.9498 118.1 86.3298 118.1 79.8263V68.4537H112.846V80.2107ZM131.778 76.8149C126.913 75.6301 125.852 75.517 125.852 74.1237C125.852 73.0458 127.069 72.5219 129.12 72.5219C131.843 72.5219 134.742 73.205 136.392 74.2199L138.026 69.9272C135.911 68.8059 132.804 68.0049 129.184 68.0049C123.77 68.0049 120.726 70.6961 120.726 74.3158C120.726 78.2109 122.999 79.7934 128.222 80.9152C132.288 81.8116 133.155 82.3709 133.155 83.5099C133.155 84.7473 132.035 85.3042 129.824 85.3042C126.621 85.3042 123.721 84.526 121.399 83.2539L119.829 87.7388C122.36 89.0843 126.14 89.9495 129.952 89.9495C135.27 89.9495 138.441 87.4825 138.441 83.3498C138.442 80.0342 136.297 77.9044 131.778 76.8149Z" fill="#4D5969"/>
</svg>
