<svg width="24" height="24" viewBox="0 0 24 24" fill="none" xmlns="http://www.w3.org/2000/svg">
<path d="M20 13.9998C21.1046 13.9998 22 13.1043 22 11.9998C22 10.8952 21.1046 9.99976 20 9.99976C18.8954 9.99976 18 10.8952 18 11.9998C18 13.1043 18.8954 13.9998 20 13.9998Z" stroke="#FF3E39" stroke-width="1.5" stroke-linecap="round" stroke-linejoin="round"/>
<path d="M20 6.00024C21.1046 6.00024 22 5.10481 22 4.00024C22 2.89567 21.1046 2.00024 20 2.00024C18.8954 2.00024 18 2.89567 18 4.00024C18 5.10481 18.8954 6.00024 20 6.00024Z" stroke="#FF3E39" stroke-width="1.5" stroke-linecap="round" stroke-linejoin="round"/>
<path d="M20 22C21.1046 22 22 21.1046 22 20C22 18.8954 21.1046 18 20 18C18.8954 18 18 18.8954 18 20C18 21.1046 18.8954 22 20 22Z" stroke="#FF3E39" stroke-width="1.5" stroke-linecap="round" stroke-linejoin="round"/>
<path d="M4 13.9998C5.10457 13.9998 6 13.1043 6 11.9998C6 10.8952 5.10457 9.99976 4 9.99976C2.89543 9.99976 2 10.8952 2 11.9998C2 13.1043 2.89543 13.9998 4 13.9998Z" stroke="#FF3E39" stroke-width="1.5" stroke-linecap="round" stroke-linejoin="round"/>
<path d="M6 12H18" stroke="#FF3E39" stroke-width="1.5" stroke-linecap="round" stroke-linejoin="round"/>
<path d="M18 3.99976H14C12 3.99976 11 4.99976 11 6.99976V16.9998C11 18.9998 12 19.9998 14 19.9998H18" stroke="#FF3E39" stroke-width="1.5" stroke-linecap="round" stroke-linejoin="round"/>
</svg>
