<svg width="12" height="13" viewBox="0 0 12 13" fill="none" xmlns="http://www.w3.org/2000/svg">
<path d="M10.9048 2.46994C10.1348 4.38994 8.20477 6.99994 6.58977 8.29494L5.60477 9.08494C5.47977 9.17494 5.35477 9.25494 5.21477 9.30994C5.21477 9.21994 5.20977 9.11994 5.19477 9.02494C5.13977 8.60494 4.94977 8.21494 4.61477 7.87994C4.27477 7.53994 3.85977 7.33994 3.43477 7.28494C3.33477 7.27994 3.23477 7.26994 3.13477 7.27994C3.18977 7.12494 3.27477 6.97994 3.37977 6.85994L4.15977 5.87494C5.44977 4.25994 8.06977 2.31994 9.98477 1.55494C10.2798 1.44494 10.5648 1.52494 10.7448 1.70994C10.9348 1.89494 11.0248 2.17994 10.9048 2.46994Z" stroke="#1000E8" stroke-linecap="round" stroke-linejoin="round"/>
<path d="M5.21514 9.31039C5.21514 9.86039 5.00514 10.3854 4.61014 10.7854C4.30514 11.0904 3.89014 11.3004 3.39514 11.3654L2.16514 11.5004C1.49514 11.5754 0.920137 11.0054 1.00014 10.3254L1.13514 9.09539C1.25514 8.00039 2.17014 7.30039 3.14014 7.28039C3.24014 7.27539 3.34514 7.28039 3.44014 7.28539C3.86514 7.34039 4.28014 7.53539 4.62014 7.88039C4.95514 8.21539 5.14514 8.60539 5.20014 9.02539C5.20514 9.12039 5.21514 9.21539 5.21514 9.31039Z" stroke="#1000E8" stroke-linecap="round" stroke-linejoin="round"/>
<path d="M7.11988 7.73512C7.11988 6.43012 6.05988 5.37012 4.75488 5.37012" stroke="#1000E8" stroke-linecap="round" stroke-linejoin="round"/>
</svg>
