<svg width="36" height="36" viewBox="0 0 36 36" fill="none" xmlns="http://www.w3.org/2000/svg">
<path d="M12.0001 33H24.0001C30.0301 33 31.1101 30.585 31.4251 27.645L32.5501 15.645C32.9551 11.985 31.9051 9 25.5001 9H10.5001C4.09511 9 3.04511 11.985 3.45011 15.645L4.57511 27.645C4.89011 30.585 5.97011 33 12.0001 33Z" stroke="#4D5969" stroke-width="2.25" stroke-miterlimit="10" stroke-linecap="round" stroke-linejoin="round"/>
<path d="M12 9V7.8C12 5.145 12 3 16.8 3H19.2C24 3 24 5.145 24 7.8V9" stroke="#4D5969" stroke-width="2.25" stroke-miterlimit="10" stroke-linecap="round" stroke-linejoin="round"/>
<path d="M21 19.5V21C21 21.015 21 21.015 21 21.03C21 22.665 20.985 24 18 24C15.03 24 15 22.68 15 21.045V19.5C15 18 15 18 16.5 18H19.5C21 18 21 18 21 19.5Z" stroke="#4D5969" stroke-width="2.25" stroke-miterlimit="10" stroke-linecap="round" stroke-linejoin="round"/>
<path d="M32.475 16.5C29.01 19.02 25.05 20.52 21 21.03" stroke="#4D5969" stroke-width="2.25" stroke-miterlimit="10" stroke-linecap="round" stroke-linejoin="round"/>
<path d="M3.93018 16.905C7.30518 19.215 11.1152 20.61 15.0002 21.045" stroke="#4D5969" stroke-width="2.25" stroke-miterlimit="10" stroke-linecap="round" stroke-linejoin="round"/>
</svg>
