<svg width="36" height="36" viewBox="0 0 36 36" fill="none" xmlns="http://www.w3.org/2000/svg">
<path d="M33 7.00553V25.1105C33 26.5505 31.83 27.9005 30.39 28.0805L29.895 28.1406C26.625 28.5756 21.585 30.2405 18.705 31.8305C18.315 32.0555 17.67 32.0555 17.265 31.8305L17.205 31.8006C14.325 30.2256 9.30004 28.5756 6.04504 28.1406L5.60999 28.0805C4.16999 27.9005 3 26.5505 3 25.1105V6.99051C3 5.20551 4.45496 3.85553 6.23996 4.00553C9.38996 4.26053 14.16 5.85057 16.83 7.51557L17.205 7.74051C17.64 8.01051 18.36 8.01051 18.795 7.74051L19.05 7.57553C19.995 6.99053 21.195 6.40553 22.5 5.88053V12.0006L25.5 10.0055L28.5 12.0006V4.1706C28.905 4.0956 29.295 4.05054 29.655 4.02054H29.745C31.53 3.87054 33 5.20553 33 7.00553Z" stroke="#FF3E39" stroke-width="2" stroke-linecap="round" stroke-linejoin="round"/>
<path d="M18 8.23535V30.7354" stroke="#FF3E39" stroke-width="2" stroke-linecap="round" stroke-linejoin="round"/>
<path d="M28.5 4.17041V12.0004L25.5 10.0053L22.5 12.0004V5.88034C24.465 5.10034 26.655 4.47041 28.5 4.17041Z" stroke="#FF3E39" stroke-width="2" stroke-linecap="round" stroke-linejoin="round"/>
</svg>
