<svg width="24" height="25" viewBox="0 0 24 25" fill="none" xmlns="http://www.w3.org/2000/svg">
<g id="vuesax/linear/briefcase">
<g id="briefcase">
<path id="Vector" d="M7.99885 22.5H15.9988C20.0188 22.5 20.7389 20.89 20.9489 18.93L21.6989 10.93C21.9689 8.49 21.2688 6.5 16.9988 6.5H6.99885C2.72885 6.5 2.02885 8.49 2.29885 10.93L3.04885 18.93C3.25885 20.89 3.97885 22.5 7.99885 22.5Z" stroke="#FF3E39" stroke-width="1.5" stroke-miterlimit="10" stroke-linecap="round" stroke-linejoin="round"/>
<path id="Vector_2" d="M8 6.5V5.7C8 3.93 8 2.5 11.2 2.5H12.8C16 2.5 16 3.93 16 5.7V6.5" stroke="#FF3E39" stroke-width="1.5" stroke-miterlimit="10" stroke-linecap="round" stroke-linejoin="round"/>
<path id="Vector_3" d="M14 13.5V14.5C14 14.51 14 14.51 14 14.52C14 15.61 13.99 16.5 12 16.5C10.02 16.5 10 15.62 10 14.53V13.5C10 12.5 10 12.5 11 12.5H13C14 12.5 14 12.5 14 13.5Z" stroke="#FF3E39" stroke-width="1.5" stroke-miterlimit="10" stroke-linecap="round" stroke-linejoin="round"/>
<path id="Vector_4" d="M21.65 11.5C19.34 13.18 16.7 14.18 14 14.52" stroke="#FF3E39" stroke-width="1.5" stroke-miterlimit="10" stroke-linecap="round" stroke-linejoin="round"/>
<path id="Vector_5" d="M2.62109 11.77C4.87109 13.31 7.41109 14.24 10.0011 14.53" stroke="#FF3E39" stroke-width="1.5" stroke-miterlimit="10" stroke-linecap="round" stroke-linejoin="round"/>
</g>
</g>
</svg>
