<svg width="24" height="25" viewBox="0 0 24 25" fill="none" xmlns="http://www.w3.org/2000/svg">
<g id="vuesax/linear/teacher">
<g id="teacher">
<path id="Vector" d="M10.0495 3.03004L4.02953 6.96004C2.09953 8.22004 2.09953 11.04 4.02953 12.3L10.0495 16.23C11.1295 16.94 12.9095 16.94 13.9895 16.23L19.9795 12.3C21.8995 11.04 21.8995 8.23004 19.9795 6.97004L13.9895 3.04004C12.9095 2.32004 11.1295 2.32004 10.0495 3.03004Z" stroke="#FF3E39" stroke-width="1.5" stroke-linecap="round" stroke-linejoin="round"/>
<path id="Vector_2" d="M5.63109 13.5801L5.62109 18.2701C5.62109 19.5401 6.60109 20.9001 7.80109 21.3001L10.9911 22.3601C11.5411 22.5401 12.4511 22.5401 13.0111 22.3601L16.2011 21.3001C17.4011 20.9001 18.3811 19.5401 18.3811 18.2701V13.6301" stroke="#FF3E39" stroke-width="1.5" stroke-linecap="round" stroke-linejoin="round"/>
<path id="Vector_3" d="M21.4004 15.5V9.5" stroke="#FF3E39" stroke-width="1.5" stroke-linecap="round" stroke-linejoin="round"/>
</g>
</g>
</svg>
