<svg width="24" height="25" viewBox="0 0 24 25" fill="none" xmlns="http://www.w3.org/2000/svg">
<g id="vuesax/linear/airplane">
<g id="airplane">
<path id="Vector" d="M9.03023 22.19L11.3602 20.23C11.7102 19.93 12.2902 19.93 12.6402 20.23L14.9702 22.19C15.5102 22.46 16.1702 22.19 16.3702 21.61L16.8102 20.28C16.9202 19.96 16.8102 19.49 16.5702 19.25L14.3002 16.97C14.1302 16.81 14.0002 16.49 14.0002 16.26V13.41C14.0002 12.99 14.3102 12.79 14.7002 12.95L19.6102 15.07C20.3802 15.4 21.0102 14.99 21.0102 14.15V12.86C21.0102 12.19 20.5102 11.42 19.8902 11.16L14.3002 8.75001C14.1402 8.68001 14.0002 8.47001 14.0002 8.29001V5.29001C14.0002 4.35001 13.3102 3.24001 12.4702 2.81001C12.1702 2.66001 11.8202 2.66001 11.5202 2.81001C10.6802 3.24001 9.99023 4.36001 9.99023 5.30001V8.30001C9.99023 8.48001 9.85023 8.69001 9.69023 8.76001L4.11023 11.17C3.49023 11.42 2.99023 12.19 2.99023 12.86V14.15C2.99023 14.99 3.62023 15.4 4.39023 15.07L9.30023 12.95C9.68023 12.78 10.0002 12.99 10.0002 13.41V16.26C10.0002 16.49 9.87023 16.81 9.71023 16.97L7.44023 19.25C7.20023 19.49 7.09023 19.95 7.20023 20.28L7.64023 21.61C7.82023 22.19 8.48023 22.47 9.03023 22.19Z" stroke="#FF3E39" stroke-width="1.5" stroke-linecap="round" stroke-linejoin="round"/>
</g>
</g>
</svg>
