<svg width="24" height="25" viewBox="0 0 24 25" fill="none" xmlns="http://www.w3.org/2000/svg">
<g id="vuesax/linear/lamp-charge">
<g id="lamp-charge">
<path id="Vector" d="M12.0001 8.39001L10.9301 10.25C10.6901 10.66 10.8901 11 11.3601 11H12.6301C13.1101 11 13.3001 11.34 13.0601 11.75L12.0001 13.61" stroke="#FF3E39" stroke-width="1.5" stroke-linecap="round" stroke-linejoin="round"/>
<path id="Vector_2" d="M8.30035 18.5399V17.3799C6.00035 15.9899 4.11035 13.2799 4.11035 10.3999C4.11035 5.44993 8.66035 1.56993 13.8004 2.68993C16.0604 3.18993 18.0404 4.68993 19.0704 6.75993C21.1604 10.9599 18.9604 15.4199 15.7304 17.3699V18.5299C15.7304 18.8199 15.8404 19.4899 14.7704 19.4899H9.26035C8.16035 19.4999 8.30035 19.0699 8.30035 18.5399Z" stroke="#FF3E39" stroke-width="1.5" stroke-linecap="round" stroke-linejoin="round"/>
<path id="Vector_3" d="M8.5 22.5C10.79 21.85 13.21 21.85 15.5 22.5" stroke="#FF3E39" stroke-width="1.5" stroke-linecap="round" stroke-linejoin="round"/>
</g>
</g>
</svg>
