<svg width="24" height="25" viewBox="0 0 24 25" fill="none" xmlns="http://www.w3.org/2000/svg">
<path d="M21.8095 4.44012C20.2695 8.28012 16.4095 13.5001 13.1795 16.0901L11.2095 17.6701C10.9595 17.8501 10.7095 18.0101 10.4295 18.1201C10.4295 17.9401 10.4195 17.7401 10.3895 17.5501C10.2795 16.7101 9.89953 15.9301 9.22953 15.2601C8.54953 14.5801 7.71953 14.1801 6.86953 14.0701C6.66953 14.0601 6.46953 14.0401 6.26953 14.0601C6.37953 13.7501 6.54953 13.4601 6.75953 13.2201L8.31953 11.2501C10.8995 8.02012 16.1395 4.14012 19.9695 2.61012C20.5595 2.39012 21.1295 2.55012 21.4895 2.92012C21.8695 3.29012 22.0495 3.86012 21.8095 4.44012Z" stroke="#FF3E39" stroke-width="1.5" stroke-linecap="round" stroke-linejoin="round"/>
<path d="M10.4293 18.1201C10.4293 19.2201 10.0093 20.27 9.2193 21.07C8.6093 21.68 7.7793 22.1001 6.7893 22.2301L4.3293 22.5001C2.9893 22.6501 1.8393 21.51 1.9993 20.15L2.2693 17.6901C2.5093 15.5001 4.3393 14.1001 6.2793 14.0601C6.4793 14.0501 6.6893 14.06 6.8793 14.07C7.7293 14.18 8.5593 14.5701 9.2393 15.2601C9.9093 15.9301 10.2893 16.71 10.3993 17.55C10.4093 17.74 10.4293 17.9301 10.4293 18.1201Z" stroke="#FF3E39" stroke-width="1.5" stroke-linecap="round" stroke-linejoin="round"/>
<path d="M14.2398 14.97C14.2398 12.36 12.1198 10.24 9.50977 10.24" stroke="#FF3E39" stroke-width="1.5" stroke-linecap="round" stroke-linejoin="round"/>
</svg>
