<svg width="24" height="25" viewBox="0 0 24 25" fill="none" xmlns="http://www.w3.org/2000/svg">
<g id="vuesax/linear/user-octagon">
<g id="user-octagon">
<path id="Vector" d="M21.0802 9.08003V15.92C21.0802 17.04 20.4802 18.08 19.5102 18.65L13.5702 22.08C12.6002 22.64 11.4002 22.64 10.4202 22.08L4.48016 18.65C3.51016 18.09 2.91016 17.05 2.91016 15.92V9.08003C2.91016 7.96003 3.51016 6.91999 4.48016 6.34999L10.4202 2.92C11.3902 2.36 12.5902 2.36 13.5702 2.92L19.5102 6.34999C20.4802 6.91999 21.0802 7.95003 21.0802 9.08003Z" stroke="#FF3E39" stroke-width="1.5" stroke-linecap="round" stroke-linejoin="round"/>
<g id="Group">
<path id="Vector_2" d="M11.9989 11.4999C13.2858 11.4999 14.3289 10.4567 14.3289 9.16992C14.3289 7.8831 13.2858 6.83997 11.9989 6.83997C10.7121 6.83997 9.66895 7.8831 9.66895 9.16992C9.66895 10.4567 10.7121 11.4999 11.9989 11.4999Z" stroke="#FF3E39" stroke-width="1.5" stroke-linecap="round" stroke-linejoin="round"/>
<path id="Vector_3" d="M15.999 17.1599C15.999 15.3599 14.209 13.8999 11.999 13.8999C9.78902 13.8999 7.99902 15.3599 7.99902 17.1599" stroke="#FF3E39" stroke-width="1.5" stroke-linecap="round" stroke-linejoin="round"/>
</g>
</g>
</g>
</svg>
