<svg width="158" height="158" viewBox="0 0 158 158" fill="none" xmlns="http://www.w3.org/2000/svg">
<rect width="158" height="158" fill="#EEF1F6"/>
<g clip-path="url(#clip0_1265_11231)">
<path d="M37.7571 60.04C44.7804 60.04 49.8238 63.3276 52.7377 68.6324L45.565 72.4056C43.9212 69.529 41.5303 67.5864 37.7945 67.5864C32.3402 67.5864 28.5296 72.2935 28.5296 78.9059C28.5296 85.5556 32.3028 90.2627 37.7945 90.2627C41.6797 90.2627 44.1453 88.2828 45.8265 85.4062L52.9992 89.2541C50.0479 94.5216 44.7057 97.8838 37.7571 97.8838C26.998 97.8838 19.7505 89.8892 19.7505 78.9059C19.7505 67.9226 26.998 60.04 37.7571 60.04ZM56.3241 60.8246H64.655V97.1366H56.3241V60.8246ZM87.1446 60.04C97.9411 60.04 105.263 67.96 105.263 78.9806C105.263 90.0012 97.9411 97.9212 87.1446 97.9212C76.3107 97.9212 68.9885 90.0012 68.9885 78.9806C68.9885 67.96 76.3107 60.04 87.1446 60.04ZM87.1446 90.3748C92.823 90.3748 96.5588 85.6677 96.5588 78.9806C96.5588 72.2935 92.823 67.5864 87.1446 67.5864C81.4288 67.5864 77.693 72.3309 77.693 78.9806C77.693 85.593 81.4288 90.3748 87.1446 90.3748ZM109.597 60.8246H125.138C132.46 60.8246 136.756 65.4943 136.756 71.2101C136.756 74.012 135.411 76.4402 133.132 78.1587C136.42 80.1013 138.25 83.0526 138.25 86.5643C138.25 92.3922 133.768 97.1366 125.81 97.1366H109.597V60.8246ZM117.928 67.9226V75.581H123.905C126.632 75.581 128.201 73.9373 128.201 71.6958C128.201 69.3796 126.669 67.9226 123.905 67.9226H117.928ZM117.928 81.7077V89.9265H125.026C127.977 89.9265 129.621 88.2828 129.621 85.8171C129.621 83.4262 128.052 81.6704 125.138 81.6704H117.928V81.7077Z" fill="#4D5969"/>
</g>
<defs>
<clipPath id="clip0_1265_11231">
<rect width="118.5" height="37.8438" fill="white" transform="translate(19.75 60.04)"/>
</clipPath>
</defs>
</svg>
