<svg width="158" height="158" viewBox="0 0 158 158" fill="none" xmlns="http://www.w3.org/2000/svg">
<rect width="158" height="158" fill="#EEF1F6"/>
<g clip-path="url(#clip0_1265_11235)">
<path fill-rule="evenodd" clip-rule="evenodd" d="M39.5 39.5L39.5014 118.5H118.5V39.5H39.5Z" fill="#4D5969"/>
<path fill-rule="evenodd" clip-rule="evenodd" d="M55.3121 78.7547V71.238C55.9265 71.0942 56.569 71.0079 57.3508 71.0079C59.6688 71.0079 61.0096 72.0151 61.0096 74.3744C61.0096 77.3023 58.8443 78.5567 55.3121 78.7547ZM63.0761 83.8993C62.0312 82.271 61.196 80.7362 60.3999 78.9718C62.976 78.0328 64.5282 76.2473 64.5282 73.7991C64.5282 70.2598 61.959 69.7705 58.105 69.7705H49.1401V70.6626L49.9219 70.7777C51.4579 71.0079 51.7653 71.5258 51.7653 73.3675V84.1007C51.7653 85.9134 51.4579 86.4604 49.9219 86.6902L49.1401 86.8053V87.6974H57.6859V86.8053L56.9319 86.6902C55.5076 86.4604 55.3121 85.9711 55.3121 84.2155V80.2742C55.9853 80.2202 56.6358 80.1228 57.2604 79.9909C58.1411 82.0696 58.9135 83.6464 59.8086 85.1654C60.9817 87.1795 62.015 87.8125 63.9698 87.8125C64.6959 87.8125 65.3941 87.7551 66.2321 87.64V86.8053C64.8635 86.4024 64.2213 85.6833 63.0761 83.8993Z" fill="#EEF1F6"/>
<path fill-rule="evenodd" clip-rule="evenodd" d="M84.0158 81.1659L86.5497 72.8033L89.5091 81.1659H84.0158ZM94.8875 84.8492L89.0505 69.2529L85.8109 69.9436L81.1189 84.1298C80.365 86.4031 80.365 86.5181 78.9126 86.806V87.6978H84.8055V86.806L84.0235 86.6622C82.7109 86.4318 82.5992 85.7987 83.0741 84.2736L83.5883 82.576H90.008L90.782 84.7628C91.2287 86.0289 91.0057 86.5181 89.8045 86.6906L89.0224 86.806V87.6978H97.066V86.806C95.9486 86.6045 95.5019 86.5181 94.8875 84.8492Z" fill="#EEF1F6"/>
<path fill-rule="evenodd" clip-rule="evenodd" d="M77.3483 70.6626L76.5385 70.7777C75.0025 71.0079 74.7231 71.5258 74.7231 73.3675V84.1007C74.7231 85.9134 74.9187 86.5178 76.1474 86.6902L76.9573 86.8053V87.6974H68.6068V86.8053L69.4167 86.6902C70.6455 86.5178 70.841 85.9134 70.841 84.1007V73.3675C70.841 71.5258 70.5617 71.0079 69.0257 70.7777L68.2158 70.6626V69.7705H77.3483V70.6626Z" fill="#EEF1F6"/>
<path fill-rule="evenodd" clip-rule="evenodd" d="M107.761 70.6626L106.951 70.7777C105.415 71.0079 105.136 71.5258 105.136 73.3675V84.1007C105.136 85.9421 105.415 86.4604 106.951 86.6902L107.761 86.8053V87.6974H99.0199V86.8053L99.8298 86.6902C101.059 86.5178 101.254 85.9134 101.254 84.1007V73.3675C101.254 71.5258 100.975 71.0079 99.4388 70.7777L98.6289 70.6626V69.7705H107.761V70.6626Z" fill="#EEF1F6"/>
</g>
<defs>
<clipPath id="clip0_1265_11235">
<rect width="79" height="79" fill="white" transform="translate(39.5 39.5)"/>
</clipPath>
</defs>
</svg>
