<svg width="158" height="158" viewBox="0 0 158 158" fill="none" xmlns="http://www.w3.org/2000/svg">
<rect width="158" height="158" fill="#EEF1F6"/>
<path d="M43.54 65.5932C38.8303 65.5932 34.3093 67.1008 30.9185 69.267V43.1768H20.3706V113.817H26.5862L28.2824 110.05C32.4261 113.064 37.2301 114.947 43.54 114.947C57.2917 114.947 62.377 105.716 62.377 90.2701C62.377 74.9182 57.2917 65.5932 43.54 65.5932ZM41.0908 74.5409C50.3215 74.5409 51.7348 81.6054 51.7348 90.2701C51.7348 99.0292 50.3215 105.999 41.0908 105.999C36.0998 105.999 32.8034 104.303 30.9185 103.267V77.2731C32.8034 76.2371 36.0998 74.5409 41.0908 74.5409ZM75.7233 80.2865C75.7233 76.0485 79.2084 74.4466 84.7653 74.4466C90.6996 74.4466 95.1263 75.5769 99.1757 77.0844V67.948C95.5019 66.3478 90.9809 65.5932 84.5767 65.5932C70.7307 65.5932 65.4567 72.4691 65.4567 80.5695C65.4567 88.6682 68.9418 93.0966 83.1635 94.3195C89.4734 94.8855 90.9809 96.6743 90.9809 100.159C90.9809 104.303 87.3072 105.999 79.7727 105.999C73.8401 105.999 68.8474 104.492 65.7397 103.362V112.404C68.9418 113.722 74.7817 114.947 81.2802 114.947C96.3509 114.947 101.342 107.883 101.342 99.7838C101.342 91.0231 97.6681 86.785 83.5407 85.5605C77.4179 84.9962 75.7233 83.5829 75.7233 80.2865ZM118.069 114.475C119.199 114.475 120.141 114.288 120.141 114.288V105.716C117.127 105.716 116.186 104.775 116.186 102.137V66.7235H105.636V102.231C105.636 110.332 109.499 114.475 118.069 114.475ZM104.034 52.7848C104.034 56.5512 107.144 59.659 110.912 59.659C114.678 59.659 117.786 56.5512 117.786 52.7848C117.786 49.0167 114.678 45.9073 110.912 45.9073C107.144 45.9073 104.034 49.0167 104.034 52.7848Z" fill="#4D5969"/>
<path d="M123.879 108.071C123.879 111.839 126.987 114.947 130.755 114.947C134.522 114.947 137.629 111.839 137.629 108.071C137.629 104.303 134.522 101.195 130.755 101.195C126.987 101.195 123.879 104.303 123.879 108.071Z" fill="#4D5969"/>
</svg>
