<svg width="36" height="36" viewBox="0 0 36 36" fill="none" xmlns="http://www.w3.org/2000/svg">
<path d="M38.0001 18.1206C38.0001 12.4913 41.7031 3.15133 38.0002 -0.500488C34.3929 -4.0581 23.4513 -2.00073 18.0001 -2.00073C12.7966 -2.00073 1.55765 -4.77664 -1.9999 -1.50059C-5.99476 2.17816 -1.9999 12.2422 -1.9999 18.1206C-1.9999 23.493 -5.40857 32.8907 -1.99998 36.4993C0.964865 39.6381 10.4263 37.2971 14.8748 37.9993V23.9379H9.79744V18.1193H14.8748V13.6873C14.8748 8.6446 17.8601 5.85793 22.4294 5.85793C24.6161 5.85793 26.9068 6.25127 26.9068 6.25127V11.2033H24.3828C21.8988 11.2033 21.1254 12.7553 21.1254 14.3473V18.1206H26.6721L25.7854 23.9366H21.1254V37.9993C25.5739 37.2971 35.0352 42.1384 38.0001 38.9995C41.4086 35.391 38.0001 23.4929 38.0001 18.1206Z" fill="#DDE4ED"/>
</svg>
