<svg width="24" height="24" viewBox="0 0 24 24" fill="none" xmlns="http://www.w3.org/2000/svg">
<path d="M21.6688 14.3002L21.2688 19.3002C21.1188 20.8302 20.9988 22.0002 18.2888 22.0002H5.70879C2.99879 22.0002 2.87879 20.8302 2.72879 19.3002L2.32879 14.3002C2.24879 13.4702 2.50879 12.7002 2.97879 12.1102C2.98879 12.1002 2.98879 12.1002 2.99879 12.0902C3.54879 11.4202 4.37879 11.0002 5.30879 11.0002H18.6888C19.6188 11.0002 20.4388 11.4202 20.9788 12.0702C20.9888 12.0802 20.9988 12.0902 20.9988 12.1002C21.4888 12.6902 21.7588 13.4602 21.6688 14.3002Z" stroke="#FF3E39" stroke-width="1.5" stroke-miterlimit="10"/>
<path d="M3.5 11.4303V6.28027C3.5 2.88027 4.35 2.03027 7.75 2.03027H9.02C10.29 2.03027 10.58 2.41027 11.06 3.05027L12.33 4.75027C12.65 5.17027 12.84 5.43027 13.69 5.43027H16.24C19.64 5.43027 20.49 6.28027 20.49 9.68027V11.4703" stroke="#FF3E39" stroke-width="1.5" stroke-miterlimit="10" stroke-linecap="round" stroke-linejoin="round"/>
<path d="M9.42969 17.0002H14.5697" stroke="#FF3E39" stroke-width="1.5" stroke-miterlimit="10" stroke-linecap="round" stroke-linejoin="round"/>
</svg>
