<svg width="165" height="96" viewBox="0 0 165 96" fill="none" xmlns="http://www.w3.org/2000/svg">
<g clip-path="url(#clip0_1_1082)">
<path d="M21.6116 87.7465L21.0358 86.4932L19.5349 83.1151L18.3862 80.562L14.9708 72.9171L14.9065 72.7588H10.23L6.78248 80.5634L3.62141 87.748L2.59988 90.0324V90.0484L0.461811 94.886V94.902L0.159295 95.5846L0 95.9331H4.88409L6.36743 92.4912L16.9978 88.1444L20.2861 95.9331H25.2651L21.6101 87.748L21.6116 87.7465ZM12.6092 77.8651L13.7579 80.5605L15.5306 84.7635L8.42658 87.6666V87.6507L11.459 80.5605L12.6092 77.8651Z" fill="white"/>
<path d="M77.3508 87.7465C77.1111 89.4443 76.5207 90.8719 75.5313 92.1092C74.5259 93.3466 73.2325 94.2673 71.5256 94.9485C69.8493 95.5991 67.9027 95.9317 65.731 95.9317C63.8633 95.9317 62.092 95.647 60.4479 95.1547C58.8681 94.6624 57.4798 93.9333 56.299 92.9341C55.1488 91.9829 54.2559 90.808 53.569 89.3019C53.3454 88.8096 53.17 88.3027 53.0254 87.7465C52.7389 86.7009 52.5942 85.5739 52.5942 84.3685C52.5942 83.0048 52.7711 81.7195 53.1379 80.562C53.249 80.1655 53.3922 79.769 53.569 79.4045C54.272 77.897 55.181 76.6916 56.3296 75.7404C57.5105 74.7572 58.8988 73.9802 60.4465 73.5198C62.0906 72.9955 63.8618 72.7588 65.7295 72.7588C67.948 72.7588 69.9121 73.0914 71.5548 73.7739C73.1989 74.4231 74.5565 75.3758 75.562 76.6292C76.4403 77.7547 77.0307 79.056 77.2865 80.5634H72.8657C72.5632 79.8968 72.1627 79.2941 71.6848 78.7713C71.0623 78.0887 70.184 77.5659 69.196 77.2319C68.1745 76.8514 67.0244 76.6611 65.731 76.6611C64.103 76.6611 62.5875 76.9777 61.2298 77.5645C59.9218 78.1512 58.8988 79.008 58.1491 80.119C58.0702 80.2614 57.9737 80.4037 57.8948 80.5634C57.3512 81.6265 57.0647 82.9104 57.0647 84.3699C57.0647 85.6552 57.2883 86.7807 57.7355 87.748C57.8627 88.0341 58.0074 88.3202 58.1827 88.5743C58.9018 89.6839 59.9233 90.5407 61.2313 91.1594C62.5568 91.7461 64.0241 92.0468 65.7325 92.0468C67.0258 92.0468 68.1745 91.8725 69.1639 91.492C70.1533 91.1275 70.9687 90.6351 71.6542 89.9206C72.2285 89.3498 72.6757 88.6208 73.0104 87.748H77.3523L77.3508 87.7465Z" fill="white"/>
<path d="M49.9122 87.7465C49.6726 89.4443 49.05 90.8719 48.0767 92.1092C47.0873 93.3466 45.7633 94.2673 44.0548 94.9485C42.3786 95.5991 40.4144 95.9317 38.2442 95.9317C36.4247 95.9317 34.6535 95.6615 33.0079 95.1707C31.396 94.6638 29.9915 93.9333 28.8575 92.9501C27.7088 91.9829 26.7998 90.808 26.1129 89.3019C25.8893 88.8096 25.714 88.2868 25.5707 87.7465C25.315 86.8272 25.1557 85.844 25.1396 84.8129C25.1235 84.6691 25.1235 84.5108 25.1235 84.3685C25.1235 83.0207 25.315 81.7674 25.6657 80.6259V80.562C25.8104 80.1655 25.9536 79.785 26.1129 79.4045C26.7998 77.897 27.7088 76.6916 28.8575 75.7404C30.0544 74.7572 31.4603 73.9802 33.0079 73.5198C34.652 72.9955 36.4233 72.7588 38.2442 72.7588C40.0652 72.7588 41.7867 72.981 43.2087 73.4573C43.5112 73.5532 43.7991 73.6636 44.0855 73.7754C45.3467 74.2663 46.4165 74.9329 47.2948 75.7578C47.5827 76.0279 47.8531 76.3285 48.1088 76.6292C49.0018 77.7547 49.5776 79.056 49.8479 80.5634H45.3789C45.1071 79.8968 44.7256 79.2941 44.2302 78.7713C43.8152 78.3269 43.2876 77.9464 42.6986 77.6458C42.3961 77.4715 42.0761 77.3277 41.7253 77.2173C40.736 76.8528 39.5537 76.6626 38.2457 76.6626C36.6337 76.6626 35.1489 76.9792 33.7766 77.5659C32.4847 78.1526 31.4632 79.0095 30.712 80.1205C30.6156 80.2628 30.5367 80.4051 30.4563 80.5649C30.0895 81.2635 29.8498 82.0564 29.7226 82.9438C29.6583 83.4041 29.6276 83.879 29.6276 84.3714C29.6276 85.6567 29.8352 86.7822 30.2663 87.7494C30.3934 88.0355 30.5381 88.3216 30.7135 88.5758C31.4647 89.6853 32.4862 90.5422 33.7781 91.1609C35.0875 91.7476 36.5709 92.0482 38.2471 92.0482C39.5551 92.0482 40.7374 91.8739 41.7268 91.4934C42.7162 91.1289 43.5302 90.6366 44.1849 89.9221H44.201C44.7753 89.3513 45.2386 88.6223 45.5733 87.7494H49.9152L49.9122 87.7465Z" fill="white"/>
<path d="M104.595 72.7529V85.7292C104.595 87.2614 104.369 88.5394 103.952 89.6896C103.534 90.8704 102.989 91.7955 102.186 92.5637C101.414 93.3625 100.515 94.032 99.5185 94.5113C98.5218 94.9905 97.3658 95.3739 96.2098 95.5656C94.988 95.8213 93.7663 95.949 92.4495 95.949C91.1328 95.949 89.911 95.8213 88.6586 95.5656C87.469 95.3739 86.3773 95.0225 85.2856 94.5113C84.2568 94.0015 83.358 93.3625 82.6185 92.5637C81.8469 91.765 81.2696 90.776 80.8838 89.6577C80.498 88.4755 80.2715 87.1989 80.2715 85.7307V72.7544H85.3178V85.4446C85.3178 87.1046 85.6071 88.3826 86.2166 89.2133C86.8274 90.0425 87.6634 90.5857 88.6908 90.9052C89.8482 91.2247 91.1006 91.415 92.4495 91.415C93.8964 91.415 95.086 91.2552 96.1776 90.9052C97.2386 90.5538 98.041 90.012 98.6518 89.2133C99.2306 88.3826 99.5199 87.106 99.5199 85.4446V72.7544H104.597L104.595 72.7529Z" fill="white"/>
<path d="M131.731 78.8026C131.673 78.0241 131.476 77.311 131.204 76.6778C131.06 76.3758 130.901 76.0911 130.726 75.821C130.071 74.7899 129.05 73.9969 127.758 73.4886C126.513 73.0122 124.997 72.79 123.273 72.79H109.322V95.9484H113.855V90.0956L119.585 87.7473H119.601L122.825 86.4315C123.305 86.3676 123.783 86.4475 124.23 86.6058C124.868 86.828 125.427 87.2404 125.842 87.7473C126.464 88.4618 126.815 89.3971 126.831 90.3483V95.9484H131.427V90.19C131.427 89.2228 131.268 88.4139 130.964 87.7473C130.21 86.3284 129.373 85.2827 127.341 84.6161L127.405 84.5842C129.387 83.7244 131.996 82.3694 131.731 78.8011V78.8026ZM122.777 82.4667C122.489 82.5771 122.187 82.7049 121.899 82.8153L113.854 86.0989V76.7722H123.271C124.579 76.7722 125.84 77.0061 126.575 77.9936C127.277 78.9855 127.071 80.008 126.511 80.5642C126.144 80.9287 125.634 81.2468 125.042 81.5314C125.01 81.5474 124.978 81.5634 124.963 81.5793C124.293 81.8959 123.527 82.1821 122.777 82.4682V82.4667Z" fill="white"/>
<path d="M136.61 74.1592L141.041 72.3496V95.948H136.61V74.1592Z" fill="white"/>
<path d="M164.949 89.3622C164.949 90.6344 164.604 91.7498 163.949 92.8056C163.264 93.7975 162.233 94.6035 160.89 95.1627C159.549 95.7204 157.832 96.0007 155.679 96.0007C154.055 96.0007 152.652 95.8148 151.435 95.4415C150.248 95.0392 149.219 94.5425 148.376 93.9529C147.564 93.3633 146.878 92.7126 146.315 91.9371C145.785 91.1616 145.442 90.4805 145.254 89.7979C145.067 89.1153 145.005 88.5257 145.035 87.9665L145.067 87.7501H149.406V87.9665C149.5 88.774 149.811 89.4871 150.372 90.1087C150.904 90.7288 151.653 91.256 152.62 91.6278C153.557 91.9691 154.649 92.155 155.834 92.155C156.927 92.155 157.832 92.001 158.549 91.7527C159.204 91.5043 159.704 91.163 160.079 90.6983C160.423 90.2641 160.579 89.7369 160.579 89.1153C160.579 88.5576 160.39 88.0914 160.016 87.7501C159.61 87.4394 158.986 87.1605 158.143 86.9122C157.267 86.6638 156.208 86.4155 154.771 86.1686C153.741 85.9507 152.711 85.7039 151.463 85.2987C150.434 84.9574 149.465 84.5231 148.591 83.996C147.78 83.4688 147.093 82.8181 146.562 82.0107C146.063 81.2046 145.813 80.2432 145.813 79.1888C145.813 77.9486 146.158 76.8013 146.843 75.8384C147.53 74.877 148.528 74.1014 149.965 73.5118C151.308 72.9527 152.993 72.6738 154.958 72.6738C157.891 72.6738 160.202 73.355 161.793 74.7216C163.386 76.1158 164.167 78.0081 164.104 80.3347V80.5526H159.891V80.3347C159.828 79.0015 159.297 78.0081 158.393 77.4519C157.457 76.8623 156.24 76.5529 154.771 76.5529C153.398 76.5529 152.338 76.7693 151.495 77.234C150.652 77.6683 150.215 78.3204 150.215 79.3137C150.215 79.6841 150.34 80.0268 150.527 80.3057C150.714 80.5845 151.026 80.8648 151.525 81.1117C152.025 81.392 152.711 81.6084 153.555 81.8262C154.429 82.0731 155.521 82.3214 156.832 82.5698C158.112 82.8181 159.078 83.0665 159.921 83.3453C160.889 83.6561 161.764 84.0584 162.512 84.5856C163.293 85.0823 163.856 85.7039 164.291 86.5084C164.728 87.3145 164.947 88.2759 164.947 89.3622H164.949Z" fill="white"/>
<path d="M109.343 0H50.4297V15.0081H109.343V0Z" fill="white"/>
<path d="M109.343 15.0078V30.241L50.4297 54.3056V39.0724L109.343 15.0078Z" fill="white"/>
<path d="M124.672 23.8291V48.0389L109.343 54.3056V30.2512L124.672 23.8291Z" fill="white"/>
</g>
<defs>
<clipPath id="clip0_1_1082">
<rect width="164.948" height="95.9999" fill="white"/>
</clipPath>
</defs>
</svg>
