<svg width="36" height="36" viewBox="0 0 36 36" fill="none" xmlns="http://www.w3.org/2000/svg">
<path d="M33 18C33 9.72 26.28 3 18 3C9.72 3 3 9.72 3 18C3 26.28 9.72 33 18 33" stroke="#FF3E39" stroke-width="2" stroke-linecap="round" stroke-linejoin="round"/>
<path d="M12.0001 4.5H13.5001C10.5751 13.26 10.5751 22.74 13.5001 31.5H12.0001" stroke="#FF3E39" stroke-width="2" stroke-linecap="round" stroke-linejoin="round"/>
<path d="M22.5 4.5C23.955 8.88 24.69 13.44 24.69 18" stroke="#FF3E39" stroke-width="2" stroke-linecap="round" stroke-linejoin="round"/>
<path d="M4.5 24V22.5C8.88 23.955 13.44 24.69 18 24.69" stroke="#FF3E39" stroke-width="2" stroke-linecap="round" stroke-linejoin="round"/>
<path d="M4.5 13.5001C13.26 10.5751 22.74 10.5751 31.5 13.5001" stroke="#FF3E39" stroke-width="2" stroke-linecap="round" stroke-linejoin="round"/>
<path d="M27.3 32.1C29.951 32.1 32.1 29.951 32.1 27.3C32.1 24.6491 29.951 22.5 27.3 22.5C24.649 22.5 22.5 24.6491 22.5 27.3C22.5 29.951 24.649 32.1 27.3 32.1Z" stroke="#FF3E39" stroke-width="2" stroke-linecap="round" stroke-linejoin="round"/>
<path d="M33 33L31.5 31.5" stroke="#FF3E39" stroke-width="2" stroke-linecap="round" stroke-linejoin="round"/>
</svg>
