<svg width="20" height="21" viewBox="0 0 20 21" fill="none" xmlns="http://www.w3.org/2000/svg">
<path d="M2.08301 10.8123V11.0742C2.67833 11.0742 7.31735 11.0266 7.31735 11.0266L8.22224 13.3126C8.42862 13.8286 8.75406 13.8286 8.96044 13.3126L10.7782 8.70085C10.9528 8.25634 11.2782 8.24046 11.5005 8.66116L12.326 10.2249C12.5721 10.6932 13.2071 11.0742 13.731 11.0742H17.9163" stroke="#1000E8" stroke-width="1.5" stroke-linecap="round" stroke-linejoin="round"/>
<path d="M10.5165 18.1582C10.2332 18.2582 9.7665 18.2582 9.48317 18.1582C7.0665 17.3332 1.6665 13.8916 1.6665 8.05824C1.6665 5.48324 3.7415 3.3999 6.29984 3.3999C7.8165 3.3999 9.15817 4.13324 9.99984 5.26657C10.8415 4.13324 12.1915 3.3999 13.6998 3.3999C16.2582 3.3999 18.3332 5.48324 18.3332 8.05824C18.3332 13.8916 12.9332 17.3332 10.5165 18.1582Z" stroke="#1000E8" stroke-width="1.5" stroke-linecap="round" stroke-linejoin="round"/>
</svg>
