<svg width="12" height="11" viewBox="0 0 12 11" fill="none" xmlns="http://www.w3.org/2000/svg">
<path d="M1.25 5.44727V5.60443C1.60719 5.60443 4.3906 5.57586 4.3906 5.57586L4.93354 6.94748C5.05737 7.25705 5.25263 7.25705 5.37646 6.94748L6.46709 4.18042C6.57187 3.91372 6.76714 3.90419 6.90049 4.15661L7.3958 5.09484C7.54344 5.37583 7.92445 5.60443 8.23878 5.60443H10.75" stroke="#1000E8" stroke-linecap="round" stroke-linejoin="round"/>
<path d="M6.31 9.855C6.14 9.915 5.86 9.915 5.69 9.855C4.24 9.36 1 7.295 1 3.795C1 2.25 2.245 1 3.78 1C4.69 1 5.495 1.44 6 2.12C6.505 1.44 7.315 1 8.22 1C9.755 1 11 2.25 11 3.795C11 7.295 7.76 9.36 6.31 9.855Z" stroke="#1000E8" stroke-linecap="round" stroke-linejoin="round"/>
</svg>
