<svg width="36" height="36" viewBox="0 0 36 36" fill="none" xmlns="http://www.w3.org/2000/svg">
<path fill-rule="evenodd" clip-rule="evenodd" d="M36 6V33.3529L35.9999 33.3709V36H33.3529H30.9999H4H2.64706H0V33.3529V30V6V2.64706V0H2.64706H4H30H33.3529H36V2.64706V6ZM10.5882 13.7647H5.29412V30.7059H10.5882V13.7647ZM11.0647 7.94118C11.0675 7.54072 10.9914 7.14363 10.8407 6.77259C10.69 6.40155 10.4677 6.06383 10.1866 5.77869C9.90535 5.49356 9.57074 5.26661 9.20183 5.1108C8.83292 4.95498 8.43693 4.87336 8.03647 4.87059H7.94118C7.12681 4.87059 6.34579 5.1941 5.76994 5.76994C5.1941 6.34579 4.87059 7.12681 4.87059 7.94118C4.87059 8.75555 5.1941 9.53656 5.76994 10.1124C6.34579 10.6883 7.12681 11.0118 7.94118 11.0118C8.34166 11.0216 8.74016 10.9525 9.11391 10.8083C9.48766 10.664 9.82933 10.4476 10.1194 10.1713C10.4095 9.89499 10.6423 9.56424 10.8045 9.19793C10.9667 8.83163 11.0551 8.43696 11.0647 8.03647V7.94118ZM30.7059 20.4141C30.7059 15.3212 27.4659 13.3412 24.2471 13.3412C23.1932 13.2884 22.1438 13.5129 21.2037 13.9922C20.2637 14.4715 19.4657 15.189 18.8894 16.0729H18.7412V13.7647H13.7647V30.7059H19.0588V21.6953C18.9823 20.7725 19.273 19.8567 19.8678 19.1469C20.4625 18.4372 21.3133 17.9908 22.2353 17.9047H22.4365C24.12 17.9047 25.3694 18.9635 25.3694 21.6318V30.7059H30.6635L30.7059 20.4141Z" fill="#DDE4ED"/>
</svg>
