<svg width="24" height="24" viewBox="0 0 24 24" fill="none" xmlns="http://www.w3.org/2000/svg">
<path d="M19 9.00024C19 10.4502 18.57 11.7803 17.83 12.8903C16.75 14.4903 15.04 15.6202 13.05 15.9102C12.71 15.9702 12.36 16.0002 12 16.0002C11.64 16.0002 11.29 15.9702 10.95 15.9102C8.96 15.6202 7.25 14.4903 6.17 12.8903C5.43 11.7803 5 10.4502 5 9.00024C5 5.13024 8.13 2.00024 12 2.00024C15.87 2.00024 19 5.13024 19 9.00024Z" stroke="#FF3E39" stroke-width="1.5" stroke-linecap="round" stroke-linejoin="round"/>
<path d="M21.2511 18.4702L19.6011 18.8601C19.2311 18.9501 18.9411 19.2302 18.8611 19.6002L18.5111 21.0702C18.3211 21.8702 17.3011 22.1102 16.7711 21.4802L12.0011 16.0002L7.23106 21.4901C6.70106 22.1201 5.68106 21.8801 5.49106 21.0801L5.14106 19.6101C5.05106 19.2401 4.76106 18.9501 4.40106 18.8701L2.75106 18.4802C1.99106 18.3002 1.72106 17.3501 2.27106 16.8001L6.17106 12.9001C7.25106 14.5001 8.96106 15.6302 10.9511 15.9202C11.2911 15.9802 11.6411 16.0102 12.0011 16.0102C12.3611 16.0102 12.7111 15.9802 13.0511 15.9202C15.0411 15.6302 16.7511 14.5001 17.8311 12.9001L21.7311 16.8001C22.2811 17.3401 22.0111 18.2902 21.2511 18.4702Z" stroke="#FF3E39" stroke-width="1.5" stroke-linecap="round" stroke-linejoin="round"/>
<path d="M12.5819 5.97976L13.1719 7.15975C13.2519 7.31975 13.4619 7.47975 13.6519 7.50975L14.7219 7.68975C15.4019 7.79975 15.5619 8.29975 15.0719 8.78975L14.2419 9.61974C14.1019 9.75974 14.0219 10.0298 14.0719 10.2298L14.3119 11.2598C14.5019 12.0698 14.0719 12.3897 13.3519 11.9597L12.3519 11.3697C12.1719 11.2597 11.8719 11.2597 11.6919 11.3697L10.6919 11.9597C9.97193 12.3797 9.54193 12.0698 9.73193 11.2598L9.97193 10.2298C10.0119 10.0398 9.94193 9.75974 9.80193 9.61974L8.97193 8.78975C8.48193 8.29975 8.64193 7.80975 9.32193 7.68975L10.3919 7.50975C10.5719 7.47975 10.7819 7.31975 10.8619 7.15975L11.4519 5.97976C11.7419 5.33976 12.2619 5.33976 12.5819 5.97976Z" stroke="#FF3E39" stroke-width="1.5" stroke-linecap="round" stroke-linejoin="round"/>
</svg>
