<svg width="57" height="56" viewBox="0 0 57 56" fill="none" xmlns="http://www.w3.org/2000/svg">
<path d="M39.9168 43.0039H30.5834L20.2001 49.9105C18.6601 50.9371 16.5834 49.8406 16.5834 47.9739V43.0039C9.58342 43.0039 4.91675 38.3372 4.91675 31.3372V17.3371C4.91675 10.3371 9.58342 5.67041 16.5834 5.67041H39.9168C46.9168 5.67041 51.5834 10.3371 51.5834 17.3371V31.3372C51.5834 38.3372 46.9168 43.0039 39.9168 43.0039Z" stroke="#1000E8" stroke-width="2.33333" stroke-miterlimit="10" stroke-linecap="round" stroke-linejoin="round"/>
<path d="M28.2502 26.5063V26.0164C28.2502 24.4298 29.2303 23.5897 30.2103 22.9131C31.167 22.2597 32.1235 21.4198 32.1235 19.8798C32.1235 17.7331 30.3969 16.0063 28.2502 16.0063C26.1036 16.0063 24.377 17.7331 24.377 19.8798" stroke="#1000E8" stroke-width="2.33333" stroke-linecap="round" stroke-linejoin="round"/>
<path d="M28.2394 32.0834H28.2604" stroke="#1000E8" stroke-width="2.33333" stroke-linecap="round" stroke-linejoin="round"/>
</svg>
