<svg width="36" height="36" viewBox="0 0 36 36" fill="none" xmlns="http://www.w3.org/2000/svg">
<path d="M18 9.65991V14.6549" stroke="#FF3E39" stroke-width="2" stroke-miterlimit="10" stroke-linecap="round"/>
<path d="M18.0298 3C12.5098 3 8.03985 7.47 8.03985 12.99V16.14C8.03985 17.16 7.61985 18.69 7.09485 19.56L5.18985 22.74C4.01985 24.705 4.82985 26.895 6.98985 27.615C14.1598 30 21.9148 30 29.0848 27.615C31.1098 26.94 31.9798 24.57 30.8848 22.74L28.9798 19.56C28.4548 18.69 28.0348 17.145 28.0348 16.14V12.99C28.0198 7.5 23.5198 3 18.0298 3Z" stroke="#FF3E39" stroke-width="2" stroke-miterlimit="10" stroke-linecap="round"/>
<path d="M22.9949 28.23C22.9949 30.975 20.7449 33.225 17.9999 33.225C16.6349 33.225 15.3749 32.655 14.4749 31.755C13.5749 30.855 13.0049 29.595 13.0049 28.23" stroke="#FF3E39" stroke-width="2" stroke-miterlimit="10"/>
</svg>
