<svg width="24" height="24" viewBox="0 0 24 24" fill="none" xmlns="http://www.w3.org/2000/svg">
<path d="M12 6.44019V9.77019" stroke="#FF3E39" stroke-width="1.5" stroke-miterlimit="10" stroke-linecap="round"/>
<path d="M12.0189 2.00024C8.33892 2.00024 5.35892 4.98024 5.35892 8.66024V10.7602C5.35892 11.4402 5.07892 12.4602 4.72892 13.0402L3.45892 15.1602C2.67892 16.4702 3.21892 17.9302 4.65892 18.4102C9.43892 20.0002 14.6089 20.0002 19.3889 18.4102C20.7389 17.9602 21.3189 16.3802 20.5889 15.1602L19.3189 13.0402C18.9689 12.4602 18.6889 11.4302 18.6889 10.7602V8.66024C18.6789 5.00024 15.6789 2.00024 12.0189 2.00024Z" stroke="#FF3E39" stroke-width="1.5" stroke-miterlimit="10" stroke-linecap="round"/>
<path d="M15.328 18.8203C15.328 20.6503 13.828 22.1503 11.998 22.1503C11.088 22.1503 10.248 21.7703 9.64797 21.1703C9.04797 20.5703 8.66797 19.7303 8.66797 18.8203" stroke="#FF3E39" stroke-width="1.5" stroke-miterlimit="10"/>
</svg>
