<svg width="24" height="24" viewBox="0 0 24 24" fill="none" xmlns="http://www.w3.org/2000/svg">
<path d="M20.5902 10.5502V7.12018C20.5902 5.89018 19.6502 4.53018 18.5002 4.10018L13.5102 2.23018C12.6802 1.92018 11.3202 1.92018 10.4902 2.23018L5.50016 4.11018C4.35016 4.54018 3.41016 5.90018 3.41016 7.12018V14.5502C3.41016 15.7302 4.19016 17.2802 5.14016 17.9902L9.44016 21.2002C10.1402 21.7402 11.0702 22.0002 12.0002 22.0002" stroke="#FF3E39" stroke-width="1.5" stroke-linecap="round" stroke-linejoin="round"/>
<path d="M16 20C18.2091 20 20 18.2091 20 16C20 13.7909 18.2091 12 16 12C13.7909 12 12 13.7909 12 16C12 18.2091 13.7909 20 16 20Z" stroke="#FF3E39" stroke-width="1.5" stroke-linecap="round" stroke-linejoin="round"/>
<path d="M21.0046 21.0001H20.9956L19 19.0001" stroke="#FF3E39" stroke-width="1.5" stroke-linecap="round" stroke-linejoin="round"/>
</svg>
