<svg width="24" height="25" viewBox="0 0 24 25" fill="none" xmlns="http://www.w3.org/2000/svg">
<path d="M14.4375 19.5503L15.9575 21.0703L18.9975 18.0303" stroke="#FF3E39" stroke-width="1.5" stroke-linecap="round" stroke-linejoin="round"/>
<path d="M12.1586 11.37C12.0586 11.36 11.9386 11.36 11.8286 11.37C9.44863 11.29 7.55863 9.34 7.55863 6.94C7.54863 4.49 9.53863 2.5 11.9886 2.5C14.4386 2.5 16.4286 4.49 16.4286 6.94C16.4286 9.34 14.5286 11.29 12.1586 11.37Z" stroke="#FF3E39" stroke-width="1.5" stroke-linecap="round" stroke-linejoin="round"/>
<path d="M11.9891 22.3099C10.1691 22.3099 8.35906 21.8499 6.97906 20.9299C4.55906 19.3099 4.55906 16.6699 6.97906 15.0599C9.72906 13.2199 14.2391 13.2199 16.9891 15.0599" stroke="#FF3E39" stroke-width="1.5" stroke-linecap="round" stroke-linejoin="round"/>
</svg>
