<svg width="25" height="24" viewBox="0 0 25 24" fill="none" xmlns="http://www.w3.org/2000/svg">
<path d="M17.1953 18.9799H7.79532C7.37532 18.9799 6.90532 18.6499 6.76532 18.2499L2.62532 6.66986C2.03532 5.00986 2.72532 4.49986 4.14532 5.51986L8.04532 8.30986C8.69532 8.75986 9.43532 8.52986 9.71532 7.79986L11.4753 3.10986C12.0353 1.60986 12.9653 1.60986 13.5253 3.10986L15.2853 7.79986C15.5653 8.52986 16.3053 8.75986 16.9453 8.30986L20.6053 5.69986C22.1653 4.57986 22.9153 5.14986 22.2753 6.95986L18.2353 18.2699C18.0853 18.6499 17.6153 18.9799 17.1953 18.9799Z" stroke="#FF3E39" stroke-width="1.5" stroke-linecap="round" stroke-linejoin="round"/>
<path d="M7 21.9998H18" stroke="#FF3E39" stroke-width="1.5" stroke-linecap="round" stroke-linejoin="round"/>
<path d="M10 14.0002H15" stroke="#FF3E39" stroke-width="1.5" stroke-linecap="round" stroke-linejoin="round"/>
</svg>
