<svg width="36" height="36" viewBox="0 0 36 36" fill="none" xmlns="http://www.w3.org/2000/svg">
<path d="M32.5081 21.45L31.9081 28.95C31.6831 31.245 31.5031 33 27.4381 33H8.56807C4.50307 33 4.32307 31.245 4.09807 28.95L3.49807 21.45C3.37807 20.205 3.76807 19.05 4.47307 18.165C4.48807 18.15 4.48807 18.15 4.50307 18.135C5.32807 17.13 6.57307 16.5 7.96807 16.5H28.0381C29.4331 16.5 30.6631 17.13 31.4731 18.105C31.4881 18.12 31.5031 18.135 31.5031 18.15C32.2381 19.035 32.6431 20.19 32.5081 21.45Z" stroke="#4D5969" stroke-width="2" stroke-miterlimit="10"/>
<path d="M5.25 17.1454V9.42041C5.25 4.32041 6.525 3.04541 11.625 3.04541H13.53C15.435 3.04541 15.87 3.61541 16.59 4.57541L18.495 7.12541C18.975 7.75541 19.26 8.14541 20.535 8.14541H24.36C29.46 8.14541 30.735 9.42041 30.735 14.5204V17.2054" stroke="#4D5969" stroke-width="2" stroke-miterlimit="10" stroke-linecap="round" stroke-linejoin="round"/>
<path d="M14.1445 25.5H21.8545" stroke="#4D5969" stroke-width="2" stroke-miterlimit="10" stroke-linecap="round" stroke-linejoin="round"/>
</svg>
