<svg width="25" height="24" viewBox="0 0 25 24" fill="none" xmlns="http://www.w3.org/2000/svg">
<path d="M10.2461 13.7502C10.2461 14.7202 10.9961 15.5002 11.9161 15.5002H13.7961C14.5961 15.5002 15.2461 14.8202 15.2461 13.9702C15.2461 13.0602 14.8461 12.7302 14.2561 12.5202L11.2461 11.4702C10.6561 11.2602 10.2561 10.9402 10.2561 10.0202C10.2561 9.18023 10.9061 8.49023 11.7061 8.49023H13.5861C14.5061 8.49023 15.2561 9.27023 15.2561 10.2402" stroke="#FF3E39" stroke-width="1.5" stroke-linecap="round" stroke-linejoin="round"/>
<path d="M12.75 7.5V16.5" stroke="#FF3E39" stroke-width="1.5" stroke-linecap="round" stroke-linejoin="round"/>
<path d="M22.75 12.0002C22.75 17.5202 18.27 22.0002 12.75 22.0002C7.23 22.0002 2.75 17.5202 2.75 12.0002C2.75 6.48024 7.23 2.00024 12.75 2.00024" stroke="#FF3E39" stroke-width="1.5" stroke-linecap="round" stroke-linejoin="round"/>
<path d="M22.75 6.00024V2.00024H18.75" stroke="#FF3E39" stroke-width="1.5" stroke-linecap="round" stroke-linejoin="round"/>
<path d="M17.75 7.00024L22.75 2.00024" stroke="#FF3E39" stroke-width="2.25" stroke-linecap="round" stroke-linejoin="round"/>
</svg>
