<svg width="24" height="25" viewBox="0 0 24 25" fill="none" xmlns="http://www.w3.org/2000/svg">
<path d="M9.3125 15.2L10.8125 16.7L14.8125 12.7" stroke="#FF3E39" stroke-width="1.5" stroke-linecap="round" stroke-linejoin="round"/>
<path d="M10 6.50024H14C16 6.50024 16 5.50024 16 4.50024C16 2.50024 15 2.50024 14 2.50024H10C9 2.50024 8 2.50024 8 4.50024C8 6.50024 9 6.50024 10 6.50024Z" stroke="#FF3E39" stroke-width="1.5" stroke-miterlimit="10" stroke-linecap="round" stroke-linejoin="round"/>
<path d="M16 4.52026C19.33 4.70026 21 5.93026 21 10.5003V16.5003C21 20.5003 20 22.5003 15 22.5003H9C4 22.5003 3 20.5003 3 16.5003V10.5003C3 5.94026 4.67 4.70026 8 4.52026" stroke="#FF3E39" stroke-width="1.5" stroke-miterlimit="10" stroke-linecap="round" stroke-linejoin="round"/>
</svg>
