<svg width="25" height="24" viewBox="0 0 25 24" fill="none" xmlns="http://www.w3.org/2000/svg">
<path d="M13.3984 22H5.39844C3.39844 22 2.39844 21 2.39844 19V11C2.39844 9 3.39844 8 5.39844 8H10.3984V19C10.3984 21 11.3984 22 13.3984 22Z" stroke="#FF3E39" stroke-width="1.5" stroke-miterlimit="10" stroke-linecap="round" stroke-linejoin="round"/>
<path d="M10.5084 4C10.4284 4.3 10.3984 4.63 10.3984 5V8H5.39844V6C5.39844 4.9 6.29844 4 7.39844 4H10.5084Z" stroke="#FF3E39" stroke-width="1.5" stroke-miterlimit="10" stroke-linecap="round" stroke-linejoin="round"/>
<path d="M14.3984 8V13" stroke="#FF3E39" stroke-width="1.5" stroke-miterlimit="10" stroke-linecap="round" stroke-linejoin="round"/>
<path d="M18.4004 8V13" stroke="#FF3E39" stroke-width="1.5" stroke-miterlimit="10" stroke-linecap="round" stroke-linejoin="round"/>
<path d="M17.3984 17H15.3984C14.8484 17 14.3984 17.45 14.3984 18V22H18.3984V18C18.3984 17.45 17.9484 17 17.3984 17Z" stroke="#FF3E39" stroke-width="1.5" stroke-miterlimit="10" stroke-linecap="round" stroke-linejoin="round"/>
<path d="M6.40039 13V17" stroke="#FF3E39" stroke-width="1.5" stroke-miterlimit="10" stroke-linecap="round" stroke-linejoin="round"/>
<path d="M10.4023 19V5C10.4023 3 11.4023 2 13.4023 2H19.4023C21.4023 2 22.4023 3 22.4023 5V19C22.4023 21 21.4023 22 19.4023 22H13.4023C11.4023 22 10.4023 21 10.4023 19Z" stroke="#FF3E39" stroke-width="1.5" stroke-miterlimit="10" stroke-linecap="round" stroke-linejoin="round"/>
</svg>
