<svg width="25" height="24" viewBox="0 0 25 24" fill="none" xmlns="http://www.w3.org/2000/svg">
<path d="M19.519 10H4.88899C3.40899 10 2.20898 8.79002 2.20898 7.32002V4.69002C2.20898 3.21002 3.41899 2.01001 4.88899 2.01001H19.519C20.999 2.01001 22.199 3.22002 22.199 4.69002V7.32002C22.199 8.79002 20.989 10 19.519 10Z" stroke="#FF3E39" stroke-width="1.5" stroke-linecap="round" stroke-linejoin="round"/>
<path d="M19.519 22H4.88899C3.40899 22 2.20898 20.79 2.20898 19.32V16.69C2.20898 15.21 3.41899 14.01 4.88899 14.01H19.519C20.999 14.01 22.199 15.22 22.199 16.69V19.32C22.199 20.79 20.989 22 19.519 22Z" stroke="#FF3E39" stroke-width="1.5" stroke-linecap="round" stroke-linejoin="round"/>
<path d="M6.19922 5V7" stroke="#FF3E39" stroke-width="1.5" stroke-linecap="round" stroke-linejoin="round"/>
<path d="M10.2012 5V7" stroke="#FF3E39" stroke-width="1.5" stroke-linecap="round" stroke-linejoin="round"/>
<path d="M6.19922 17V19" stroke="#FF3E39" stroke-width="1.5" stroke-linecap="round" stroke-linejoin="round"/>
<path d="M10.2012 17V19" stroke="#FF3E39" stroke-width="1.5" stroke-linecap="round" stroke-linejoin="round"/>
<path d="M14.1973 6H18.1973" stroke="#FF3E39" stroke-width="1.5" stroke-linecap="round" stroke-linejoin="round"/>
<path d="M14.1973 18H18.1973" stroke="#FF3E39" stroke-width="1.5" stroke-linecap="round" stroke-linejoin="round"/>
</svg>
