<svg width="24" height="25" viewBox="0 0 24 25" fill="none" xmlns="http://www.w3.org/2000/svg">
<path d="M21.8095 4.43988C20.2695 8.27988 16.4095 13.4999 13.1795 16.0899L11.2095 17.6699C10.9595 17.8499 10.7095 18.0099 10.4295 18.1199C10.4295 17.9399 10.4195 17.7399 10.3895 17.5499C10.2795 16.7099 9.89953 15.9299 9.22953 15.2599C8.54953 14.5799 7.71953 14.1799 6.86953 14.0699C6.66953 14.0599 6.46953 14.0399 6.26953 14.0599C6.37953 13.7499 6.54953 13.4599 6.75953 13.2199L8.31953 11.2499C10.8995 8.01988 16.1395 4.13988 19.9695 2.60988C20.5595 2.38988 21.1295 2.54988 21.4895 2.91988C21.8695 3.28988 22.0495 3.85988 21.8095 4.43988Z" stroke="#FF3E39" stroke-width="1.5" stroke-linecap="round" stroke-linejoin="round"/>
<path d="M10.4293 18.1198C10.4293 19.2198 10.0093 20.2698 9.2193 21.0698C8.6093 21.6798 7.7793 22.0998 6.7893 22.2298L4.3293 22.4998C2.9893 22.6498 1.8393 21.5098 1.9993 20.1498L2.2693 17.6898C2.5093 15.4998 4.3393 14.0998 6.2793 14.0598C6.4793 14.0498 6.6893 14.0598 6.8793 14.0698C7.7293 14.1798 8.5593 14.5698 9.2393 15.2598C9.9093 15.9298 10.2893 16.7098 10.3993 17.5498C10.4093 17.7398 10.4293 17.9298 10.4293 18.1198Z" stroke="#FF3E39" stroke-width="1.5" stroke-linecap="round" stroke-linejoin="round"/>
<path d="M14.2378 14.9697C14.2378 12.3597 12.1178 10.2397 9.50781 10.2397" stroke="#FF3E39" stroke-width="1.5" stroke-linecap="round" stroke-linejoin="round"/>
</svg>
