<svg width="24" height="25" viewBox="0 0 24 25" fill="none" xmlns="http://www.w3.org/2000/svg">
<path d="M8.99953 13.4998C8.33953 13.8298 7.78953 14.3198 7.37953 14.9298C7.14953 15.2798 7.14953 15.7198 7.37953 16.0698C7.78953 16.6798 8.33953 17.1698 8.99953 17.4998" stroke="#FF3E39" stroke-width="1.5" stroke-linecap="round" stroke-linejoin="round"/>
<path d="M15.2109 13.4998C15.8709 13.8298 16.4209 14.3198 16.8309 14.9298C17.0609 15.2798 17.0609 15.7198 16.8309 16.0698C16.4209 16.6798 15.8709 17.1698 15.2109 17.4998" stroke="#FF3E39" stroke-width="1.5" stroke-linecap="round" stroke-linejoin="round"/>
<path d="M9 22.5002H15C20 22.5002 22 20.5002 22 15.5002V9.50024C22 4.50024 20 2.50024 15 2.50024H9C4 2.50024 2 4.50024 2 9.50024V15.5002C2 20.5002 4 22.5002 9 22.5002Z" stroke="#FF3E39" stroke-width="1.5" stroke-linecap="round" stroke-linejoin="round"/>
<path d="M2.23047 8.51024L21.4505 8.50024" stroke="#FF3E39" stroke-width="1.5" stroke-linecap="round" stroke-linejoin="round"/>
</svg>
