<svg width="24" height="25" viewBox="0 0 24 25" fill="none" xmlns="http://www.w3.org/2000/svg">
<path d="M19 9.50024C19 10.9502 18.57 12.2803 17.83 13.3903C16.75 14.9903 15.04 16.1202 13.05 16.4102C12.71 16.4702 12.36 16.5002 12 16.5002C11.64 16.5002 11.29 16.4702 10.95 16.4102C8.96 16.1202 7.25 14.9903 6.17 13.3903C5.43 12.2803 5 10.9502 5 9.50024C5 5.63024 8.13 2.50024 12 2.50024C15.87 2.50024 19 5.63024 19 9.50024Z" stroke="#FF3E39" stroke-width="1.5" stroke-linecap="round" stroke-linejoin="round"/>
<path d="M21.2511 18.9702L19.6011 19.3601C19.2311 19.4501 18.9411 19.7302 18.8611 20.1002L18.5111 21.5702C18.3211 22.3702 17.3011 22.6102 16.7711 21.9802L12.0011 16.5002L7.23106 21.9901C6.70106 22.6201 5.68106 22.3801 5.49106 21.5801L5.14106 20.1101C5.05106 19.7401 4.76106 19.4501 4.40106 19.3701L2.75106 18.9802C1.99106 18.8002 1.72106 17.8501 2.27106 17.3001L6.17106 13.4001C7.25106 15.0001 8.96106 16.1302 10.9511 16.4202C11.2911 16.4802 11.6411 16.5102 12.0011 16.5102C12.3611 16.5102 12.7111 16.4802 13.0511 16.4202C15.0411 16.1302 16.7511 15.0001 17.8311 13.4001L21.7311 17.3001C22.2811 17.8401 22.0111 18.7902 21.2511 18.9702Z" stroke="#FF3E39" stroke-width="1.5" stroke-linecap="round" stroke-linejoin="round"/>
<path d="M12.5819 6.47976L13.1719 7.65975C13.2519 7.81975 13.4619 7.97975 13.6519 8.00975L14.7219 8.18975C15.4019 8.29975 15.5619 8.79975 15.0719 9.28975L14.2419 10.1197C14.1019 10.2597 14.0219 10.5298 14.0719 10.7298L14.3119 11.7598C14.5019 12.5698 14.0719 12.8897 13.3519 12.4597L12.3519 11.8697C12.1719 11.7597 11.8719 11.7597 11.6919 11.8697L10.6919 12.4597C9.97193 12.8797 9.54193 12.5698 9.73193 11.7598L9.97193 10.7298C10.0119 10.5398 9.94193 10.2597 9.80193 10.1197L8.97193 9.28975C8.48193 8.79975 8.64193 8.30975 9.32193 8.18975L10.3919 8.00975C10.5719 7.97975 10.7819 7.81975 10.8619 7.65975L11.4519 6.47976C11.7419 5.83976 12.2619 5.83976 12.5819 6.47976Z" stroke="#FF3E39" stroke-width="1.5" stroke-linecap="round" stroke-linejoin="round"/>
</svg>
