<svg width="24" height="24" viewBox="0 0 24 24" fill="none" xmlns="http://www.w3.org/2000/svg">
<path d="M19.002 16V6.5C19.002 5.4 18.102 4.5 17.002 4.5H11.502" stroke="#FF3E39" stroke-width="1.5" stroke-linecap="round" stroke-linejoin="round"/>
<path d="M13.998 2L10.998 4.5L13.998 7" stroke="#FF3E39" stroke-width="1.5" stroke-linecap="round" stroke-linejoin="round"/>
<path d="M19.002 22C20.6588 22 22.002 20.6569 22.002 19C22.002 17.3431 20.6588 16 19.002 16C17.3451 16 16.002 17.3431 16.002 19C16.002 20.6569 17.3451 22 19.002 22Z" stroke="#FF3E39" stroke-width="1.5" stroke-linecap="round" stroke-linejoin="round"/>
<path d="M4.99805 8V17.5C4.99805 18.6 5.89805 19.5 6.99805 19.5H12.498" stroke="#FF3E39" stroke-width="1.5" stroke-linecap="round" stroke-linejoin="round"/>
<path d="M10.002 22L13.002 19.5L10.002 17" stroke="#FF3E39" stroke-width="1.5" stroke-linecap="round" stroke-linejoin="round"/>
<path d="M4.99805 8C6.6549 8 7.99805 6.65685 7.99805 5C7.99805 3.34315 6.6549 2 4.99805 2C3.34119 2 1.99805 3.34315 1.99805 5C1.99805 6.65685 3.34119 8 4.99805 8Z" stroke="#FF3E39" stroke-width="1.5" stroke-linecap="round" stroke-linejoin="round"/>
</svg>
