<svg width="25" height="24" viewBox="0 0 25 24" fill="none" xmlns="http://www.w3.org/2000/svg">
<path d="M9.80031 13C9.14031 13.33 8.59031 13.82 8.18031 14.43C7.95031 14.78 7.95031 15.22 8.18031 15.57C8.59031 16.18 9.14031 16.67 9.80031 17" stroke="#FF3E39" stroke-width="1.5" stroke-linecap="round" stroke-linejoin="round"/>
<path d="M16.0117 13C16.6717 13.33 17.2217 13.82 17.6317 14.43C17.8617 14.78 17.8617 15.22 17.6317 15.57C17.2217 16.18 16.6717 16.67 16.0117 17" stroke="#FF3E39" stroke-width="1.5" stroke-linecap="round" stroke-linejoin="round"/>
<path d="M9.79883 22H15.7988C20.7988 22 22.7988 20 22.7988 15V9C22.7988 4 20.7988 2 15.7988 2H9.79883C4.79883 2 2.79883 4 2.79883 9V15C2.79883 20 4.79883 22 9.79883 22Z" stroke="#FF3E39" stroke-width="1.5" stroke-linecap="round" stroke-linejoin="round"/>
<path d="M3.0332 8.01L22.2532 8" stroke="#FF3E39" stroke-width="1.5" stroke-linecap="round" stroke-linejoin="round"/>
</svg>
