<svg width="25" height="24" viewBox="0 0 25 24" fill="none" xmlns="http://www.w3.org/2000/svg">
<path d="M22.25 13.0002V9.00024C22.25 4.00024 20.25 2.00024 15.25 2.00024H9.25C4.25 2.00024 2.25 4.00024 2.25 9.00024V15.0002C2.25 20.0002 4.25 22.0002 9.25 22.0002H13.25" stroke="#FF3E39" stroke-width="1.5" stroke-linecap="round" stroke-linejoin="round"/>
<path d="M7.57812 14.4898L9.95813 11.3998C10.2981 10.9598 10.9281 10.8798 11.3681 11.2198L13.1982 12.6598C13.6382 12.9998 14.2681 12.9198 14.6081 12.4898L16.9182 9.50977" stroke="#FF3E39" stroke-width="1.5" stroke-linecap="round" stroke-linejoin="round"/>
<path d="M19.7312 15.8199L20.0112 16.3899C20.1512 16.6699 20.5012 16.9299 20.8112 16.9899L21.1912 17.0499C22.3312 17.2399 22.6012 18.0799 21.7812 18.9099L21.4312 19.2599C21.2012 19.4999 21.0712 19.9599 21.1412 20.2799L21.1912 20.4899C21.5012 21.8699 20.7712 22.3999 19.5712 21.6799L19.3112 21.5299C19.0012 21.3499 18.5012 21.3499 18.1912 21.5299L17.9312 21.6799C16.7212 22.4099 15.9912 21.8699 16.3112 20.4899L16.3612 20.2799C16.4312 19.9599 16.3012 19.4999 16.0712 19.2599L15.7212 18.9099C14.9012 18.0799 15.1712 17.2399 16.3112 17.0499L16.6912 16.9899C16.9912 16.9399 17.3512 16.6699 17.4912 16.3899L17.7712 15.8199C18.3112 14.7299 19.1912 14.7299 19.7312 15.8199Z" stroke="#FF3E39" stroke-width="1.5" stroke-linecap="round" stroke-linejoin="round"/>
</svg>
