<svg width="24" height="25" viewBox="0 0 24 25" fill="none" xmlns="http://www.w3.org/2000/svg">
<path d="M3.17188 7.94019L12.0019 13.0502L20.7719 7.97015" stroke="#FF3E39" stroke-width="1.5" stroke-linecap="round" stroke-linejoin="round"/>
<path d="M12 22.11V13.04" stroke="#FF3E39" stroke-width="1.5" stroke-linecap="round" stroke-linejoin="round"/>
<path d="M21.6106 13.3305V9.67049C21.6106 8.29049 20.6206 6.61051 19.4106 5.94051L14.0706 2.98049C12.9306 2.34049 11.0706 2.34049 9.9306 2.98049L4.59061 5.94051C3.38061 6.61051 2.39062 8.29049 2.39062 9.67049V15.3305C2.39062 16.7105 3.38061 18.3905 4.59061 19.0605L9.9306 22.0205C10.5006 22.3405 11.2506 22.5005 12.0006 22.5005C12.7506 22.5005 13.5006 22.3405 14.0706 22.0205" stroke="#FF3E39" stroke-width="1.5" stroke-linecap="round" stroke-linejoin="round"/>
<path d="M19.2 21.9C20.9673 21.9 22.4 20.4673 22.4 18.7C22.4 16.9327 20.9673 15.5 19.2 15.5C17.4327 15.5 16 16.9327 16 18.7C16 20.4673 17.4327 21.9 19.2 21.9Z" stroke="#FF3E39" stroke-width="1.5" stroke-linecap="round" stroke-linejoin="round"/>
<path d="M23 22.5L22 21.5" stroke="#FF3E39" stroke-width="1.5" stroke-linecap="round" stroke-linejoin="round"/>
</svg>
