<svg width="24" height="24" viewBox="0 0 24 24" fill="none" xmlns="http://www.w3.org/2000/svg">
<path d="M9.31055 14.7002L10.8105 16.2002L14.8105 12.2002" stroke="#FF3E39" stroke-width="1.5" stroke-linecap="round" stroke-linejoin="round"/>
<path d="M9.99805 6H13.998C15.998 6 15.998 5 15.998 4C15.998 2 14.998 2 13.998 2H9.99805C8.99805 2 7.99805 2 7.99805 4C7.99805 6 8.99805 6 9.99805 6Z" stroke="#FF3E39" stroke-width="1.5" stroke-miterlimit="10" stroke-linecap="round" stroke-linejoin="round"/>
<path d="M16 4.02051C19.33 4.20051 21 5.43051 21 10.0005V16.0005C21 20.0005 20 22.0005 15 22.0005H9C4 22.0005 3 20.0005 3 16.0005V10.0005C3 5.44051 4.67 4.20051 8 4.02051" stroke="#FF3E39" stroke-width="1.5" stroke-miterlimit="10" stroke-linecap="round" stroke-linejoin="round"/>
</svg>
