<svg width="37" height="36" viewBox="0 0 37 36" fill="none" xmlns="http://www.w3.org/2000/svg">
<path d="M26 33H11C5 33 3.5 31.5 3.5 25.5V22.5C3.5 16.5 5 15 11 15H26C32 15 33.5 16.5 33.5 22.5V25.5C33.5 31.5 32 33 26 33Z" stroke="black" stroke-width="2" stroke-linecap="round" stroke-linejoin="round"/>
<path d="M9.5 15V12C9.5 7.035 11 3 18.5 3C25.25 3 27.5 6 27.5 10.5" stroke="black" stroke-width="2" stroke-linecap="round" stroke-linejoin="round"/>
<path d="M18.5 27.75C20.5711 27.75 22.25 26.0711 22.25 24C22.25 21.9289 20.5711 20.25 18.5 20.25C16.4289 20.25 14.75 21.9289 14.75 24C14.75 26.0711 16.4289 27.75 18.5 27.75Z" stroke="black" stroke-width="2" stroke-linecap="round" stroke-linejoin="round"/>
</svg>
