<svg width="36" height="37" viewBox="0 0 36 37" fill="none" xmlns="http://www.w3.org/2000/svg">
<path d="M33 7.50504V25.6101C33 27.0501 31.83 28.4 30.39 28.58L29.895 28.6401C26.625 29.0751 21.585 30.74 18.705 32.33C18.315 32.555 17.67 32.555 17.265 32.33L17.205 32.3001C14.325 30.7251 9.30004 29.0751 6.04504 28.6401L5.60999 28.58C4.16999 28.4 3 27.0501 3 25.6101V7.49002C3 5.70502 4.45496 4.35504 6.23996 4.50504C9.38996 4.76004 14.16 6.35008 16.83 8.01508L17.205 8.24002C17.64 8.51002 18.36 8.51002 18.795 8.24002L19.05 8.07505C19.995 7.49005 21.195 6.90504 22.5 6.38004V12.5001L25.5 10.505L28.5 12.5001V4.67011C28.905 4.59511 29.295 4.55005 29.655 4.52005H29.745C31.53 4.37005 33 5.70504 33 7.50504Z" stroke="black" stroke-width="2" stroke-linecap="round" stroke-linejoin="round"/>
<path d="M18 8.73486V31.2349" stroke="black" stroke-width="2" stroke-linecap="round" stroke-linejoin="round"/>
<path d="M28.5 4.66992V12.4999L25.5 10.5049L22.5 12.4999V6.37985C24.465 5.59985 26.655 4.96992 28.5 4.66992Z" stroke="black" stroke-width="2" stroke-linecap="round" stroke-linejoin="round"/>
</svg>
