<svg width="37" height="36" viewBox="0 0 37 36" fill="none" xmlns="http://www.w3.org/2000/svg">
<path d="M29.4802 15.0001H7.53515C5.31515 15.0001 3.51514 13.1852 3.51514 10.9802V7.03515C3.51514 4.81515 5.33015 3.01514 7.53515 3.01514H29.4802C31.7002 3.01514 33.5001 4.83015 33.5001 7.03515V10.9802C33.5001 13.1852 31.6852 15.0001 29.4802 15.0001Z" stroke="black" stroke-width="2" stroke-linecap="round" stroke-linejoin="round"/>
<path d="M29.4802 33.0001H7.53515C5.31515 33.0001 3.51514 31.1852 3.51514 28.9802V25.0351C3.51514 22.8151 5.33015 21.0151 7.53515 21.0151H29.4802C31.7002 21.0151 33.5001 22.8301 33.5001 25.0351V28.9802C33.5001 31.1852 31.6852 33.0001 29.4802 33.0001Z" stroke="black" stroke-width="2" stroke-linecap="round" stroke-linejoin="round"/>
<path d="M9.5 7.5V10.5" stroke="black" stroke-width="2" stroke-linecap="round" stroke-linejoin="round"/>
<path d="M15.5 7.5V10.5" stroke="black" stroke-width="2.25" stroke-linecap="round" stroke-linejoin="round"/>
<path d="M9.5 25.5V28.5" stroke="black" stroke-width="2.25" stroke-linecap="round" stroke-linejoin="round"/>
<path d="M15.5 25.5V28.5" stroke="black" stroke-width="2.25" stroke-linecap="round" stroke-linejoin="round"/>
<path d="M21.5 9H27.5" stroke="black" stroke-width="2.25" stroke-linecap="round" stroke-linejoin="round"/>
<path d="M21.5 27H27.5" stroke="black" stroke-width="2.25" stroke-linecap="round" stroke-linejoin="round"/>
</svg>
