<svg width="24" height="24" viewBox="0 0 24 24" fill="none" xmlns="http://www.w3.org/2000/svg">
<path d="M22.0011 11.6498H16.2011C14.6711 11.6498 13.6211 10.4898 13.6211 9.06976V5.84973C13.6211 4.42973 14.6711 3.26978 16.2011 3.26978H19.4211C20.8411 3.26978 22.0011 4.42973 22.0011 5.84973V11.6498Z" stroke="#FF3E39" stroke-width="1.5" stroke-linecap="round" stroke-linejoin="round"/>
<path d="M22.0007 11.6501C22.0007 17.7001 20.8707 18.7001 17.4707 20.7201" stroke="#FF3E39" stroke-width="1.5" stroke-linecap="round" stroke-linejoin="round"/>
<path d="M10.3722 11.6498H4.57219C3.04219 11.6498 1.99219 10.4898 1.99219 9.06976V5.84973C1.99219 4.42973 3.04219 3.26978 4.57219 3.26978H7.80219C9.22219 3.26978 10.3822 4.42973 10.3822 5.84973V11.6498" stroke="#FF3E39" stroke-width="1.5" stroke-linecap="round" stroke-linejoin="round"/>
<path d="M10.3718 11.6501C10.3718 17.7001 9.2418 18.7001 5.8418 20.7201" stroke="#FF3E39" stroke-width="1.5" stroke-linecap="round" stroke-linejoin="round"/>
</svg>
