<svg width="36" height="36" viewBox="0 0 36 36" fill="none" xmlns="http://www.w3.org/2000/svg">
<path d="M3 17.4746H11.7C13.995 17.4746 15.57 15.7346 15.57 13.6046V8.77454C15.57 6.64454 13.995 4.9046 11.7 4.9046H6.87003C4.74003 4.9046 3 6.64454 3 8.77454V17.4746" stroke="black" stroke-width="1.5" stroke-linecap="round" stroke-linejoin="round"/>
<path d="M3 17.4747C3 26.5497 4.69504 28.0496 9.79504 31.0796" stroke="black" stroke-width="1.5" stroke-linecap="round" stroke-linejoin="round"/>
<path d="M20.4448 17.4746H29.1448C31.4398 17.4746 33.0148 15.7346 33.0148 13.6046V8.77454C33.0148 6.64454 31.4398 4.9046 29.1448 4.9046H24.3148C22.1848 4.9046 20.4448 6.64454 20.4448 8.77454V17.4746" stroke="black" stroke-width="1.5" stroke-linecap="round" stroke-linejoin="round"/>
<path d="M20.4448 17.4747C20.4448 26.5497 22.1398 28.0496 27.2398 31.0796" stroke="black" stroke-width="1.5" stroke-linecap="round" stroke-linejoin="round"/>
</svg>
