<svg width="37" height="36" viewBox="0 0 37 36" fill="none" xmlns="http://www.w3.org/2000/svg">
<path d="M35 26.8651C35.03 27.9901 34.7299 29.0551 34.1899 29.9701C33.8899 30.5101 33.485 31.0051 33.035 31.4101C32 32.3701 30.6349 32.9551 29.1199 33.0001C26.9299 33.0451 24.9949 31.9201 23.9299 30.1951C23.3599 29.3101 23.015 28.2451 23 27.1201C22.955 25.2301 23.7949 23.5201 25.1449 22.3951C26.1649 21.5551 27.455 21.0301 28.865 21.0001C32.18 20.9251 34.925 23.5501 35 26.8651Z" stroke="#1000E8" stroke-width="2" stroke-miterlimit="10" stroke-linecap="round" stroke-linejoin="round"/>
<path d="M26.66 27.0452L28.175 28.4851L31.31 25.4551" stroke="#1000E8" stroke-width="2" stroke-linecap="round" stroke-linejoin="round"/>
<path d="M5.25507 11.1599L18.5 18.8249L31.655 11.2049" stroke="#1000E8" stroke-width="2" stroke-linecap="round" stroke-linejoin="round"/>
<path d="M18.5 32.4147V18.8097" stroke="#1000E8" stroke-width="2" stroke-linecap="round" stroke-linejoin="round"/>
<path d="M32.915 13.7551V22.2452C32.915 22.3202 32.915 22.3801 32.9 22.4551C31.85 21.5401 30.5 21.0002 29 21.0002C27.59 21.0002 26.285 21.4952 25.25 22.3202C23.87 23.4152 23 25.1102 23 27.0002C23 28.1252 23.315 29.1901 23.87 30.0901C24.005 30.3301 24.17 30.5552 24.35 30.7652L21.605 32.2802C19.895 33.2402 17.105 33.2402 15.395 32.2802L7.38499 27.8401C5.56999 26.8351 4.08502 24.3152 4.08502 22.2452V13.7551C4.08502 11.6851 5.56999 9.16516 7.38499 8.16016L15.395 3.72012C17.105 2.76012 19.895 2.76012 21.605 3.72012L29.615 8.16016C31.43 9.16516 32.915 11.6851 32.915 13.7551Z" stroke="#1000E8" stroke-width="2" stroke-linecap="round" stroke-linejoin="round"/>
</svg>
