<svg width="37" height="36" viewBox="0 0 37 36" fill="none" xmlns="http://www.w3.org/2000/svg">
<path d="M33.5 16.65V10.35C33.5 5.1 31.4 3 26.15 3H19.85C14.6 3 12.5 5.1 12.5 10.35V12H17.15C22.4 12 24.5 14.1 24.5 19.35V24H26.15C31.4 24 33.5 21.9 33.5 16.65Z" stroke="#1000E8" stroke-width="2" stroke-linecap="round" stroke-linejoin="round"/>
<path d="M24.5 25.65V19.35C24.5 14.1 22.4 12 17.15 12H10.85C5.6 12 3.5 14.1 3.5 19.35V25.65C3.5 30.9 5.6 33 10.85 33H17.15C22.4 33 24.5 30.9 24.5 25.65Z" stroke="#1000E8" stroke-width="2" stroke-linecap="round" stroke-linejoin="round"/>
<path d="M9.62012 22.5001L12.5451 25.4251L18.3801 19.5751" stroke="#1000E8" stroke-width="2" stroke-linecap="round" stroke-linejoin="round"/>
</svg>
