<svg width="37" height="36" viewBox="0 0 37 36" fill="none" xmlns="http://www.w3.org/2000/svg">
<path d="M23.7554 7.815L25.8703 12.045C26.1553 12.63 26.9203 13.185 27.5653 13.305L31.3904 13.935C33.8354 14.34 34.4053 16.11 32.6503 17.88L29.6653 20.865C29.1703 21.36 28.8854 22.335 29.0504 23.04L29.9053 26.73C30.5803 29.64 29.0203 30.78 26.4553 29.25L22.8703 27.12C22.2253 26.73 21.1453 26.73 20.5003 27.12L16.9153 29.25C14.3503 30.765 12.7903 29.64 13.4653 26.73L14.3203 23.04C14.4853 22.35 14.2003 21.375 13.7053 20.865L10.7204 17.88C8.96535 16.125 9.53535 14.355 11.9803 13.935L15.8053 13.305C16.4503 13.2 17.2153 12.63 17.5003 12.045L19.6153 7.815C20.7403 5.52 22.6004 5.52 23.7554 7.815Z" stroke="black" stroke-width="2" stroke-linecap="round" stroke-linejoin="round"/>
<path d="M12.668 7.5H3.66797" stroke="black" stroke-width="2" stroke-linecap="round" stroke-linejoin="round"/>
<path d="M8.16797 28.5H3.66797" stroke="black" stroke-width="2" stroke-linecap="round" stroke-linejoin="round"/>
<path d="M5.16797 18H3.66797" stroke="black" stroke-width="2.25" stroke-linecap="round" stroke-linejoin="round"/>
</svg>
