<svg width="12" height="13" viewBox="0 0 12 13" fill="none" xmlns="http://www.w3.org/2000/svg">
<path d="M6 10.1504C7.79493 10.1504 9.25 8.69532 9.25 6.90039C9.25 5.10547 7.79493 3.65039 6 3.65039C4.20507 3.65039 2.75 5.10547 2.75 6.90039C2.75 8.69532 4.20507 10.1504 6 10.1504Z" stroke="#1000E8" stroke-linecap="round" stroke-linejoin="round"/>
<path d="M9.57 10.4704L9.505 10.4054M9.505 3.39539L9.57 3.33039L9.505 3.39539ZM2.43 10.4704L2.495 10.4054L2.43 10.4704ZM6 1.94039V1.90039V1.94039ZM6 11.9004V11.8604V11.9004ZM1.04 6.90039H1H1.04ZM11 6.90039H10.96H11ZM2.495 3.39539L2.43 3.33039L2.495 3.39539Z" stroke="#1000E8" stroke-linecap="round" stroke-linejoin="round"/>
</svg>
