<svg width="20" height="21" viewBox="0 0 20 21" fill="none" xmlns="http://www.w3.org/2000/svg">
<path d="M9.99967 15.9167C12.9912 15.9167 15.4163 13.4916 15.4163 10.5C15.4163 7.50847 12.9912 5.08334 9.99967 5.08334C7.00813 5.08334 4.58301 7.50847 4.58301 10.5C4.58301 13.4916 7.00813 15.9167 9.99967 15.9167Z" stroke="#1000E8" stroke-width="1.25" stroke-linecap="round" stroke-linejoin="round"/>
<path d="M15.9503 16.45L15.842 16.3417M15.842 4.65832L15.9503 4.54999L15.842 4.65832ZM4.05033 16.45L4.15866 16.3417L4.05033 16.45ZM10.0003 2.23332V2.16666V2.23332ZM10.0003 18.8333V18.7667V18.8333ZM1.73366 10.5H1.66699H1.73366ZM18.3337 10.5H18.267H18.3337ZM4.15866 4.65832L4.05033 4.54999L4.15866 4.65832Z" stroke="#1000E8" stroke-width="1.66667" stroke-linecap="round" stroke-linejoin="round"/>
</svg>
