<svg width="24" height="24" viewBox="0 0 24 24" fill="none" xmlns="http://www.w3.org/2000/svg">
<path d="M21.0821 8.58003V15.42C21.0821 16.54 20.4821 17.58 19.5121 18.15L13.5721 21.58C12.6021 22.14 11.4021 22.14 10.4221 21.58L4.48211 18.15C3.51211 17.59 2.91211 16.55 2.91211 15.42V8.58003C2.91211 7.46003 3.51211 6.41999 4.48211 5.84999L10.4221 2.42C11.3921 1.86 12.5921 1.86 13.5721 2.42L19.5121 5.84999C20.4821 6.41999 21.0821 7.45003 21.0821 8.58003Z" stroke="#FF3E39" stroke-width="1.5" stroke-linecap="round" stroke-linejoin="round"/>
<path d="M11.996 10.9998C13.2828 10.9998 14.326 9.95662 14.326 8.6698C14.326 7.38298 13.2828 6.33984 11.996 6.33984C10.7092 6.33984 9.66602 7.38298 9.66602 8.6698C9.66602 9.95662 10.7092 10.9998 11.996 10.9998Z" stroke="#FF3E39" stroke-width="1.5" stroke-linecap="round" stroke-linejoin="round"/>
<path d="M15.9961 16.6594C15.9961 14.8594 14.2061 13.3994 11.9961 13.3994C9.78609 13.3994 7.99609 14.8594 7.99609 16.6594" stroke="#FF3E39" stroke-width="1.5" stroke-linecap="round" stroke-linejoin="round"/>
</svg>
