<svg width="36" height="36" viewBox="0 0 36 36" fill="none" xmlns="http://www.w3.org/2000/svg">
<path d="M27 28.2896H25.86C24.66 28.2896 23.52 28.7546 22.68 29.5946L20.115 32.1296C18.945 33.2846 17.04 33.2846 15.87 32.1296L13.305 29.5946C12.465 28.7546 11.31 28.2896 10.125 28.2896H9C6.51 28.2896 4.5 26.2947 4.5 23.8347V7.4696C4.5 5.0096 6.51 3.01465 9 3.01465H27C29.49 3.01465 31.5 5.0096 31.5 7.4696V23.8347C31.5 26.2797 29.49 28.2896 27 28.2896Z" stroke="#FF3E39" stroke-width="2" stroke-miterlimit="10" stroke-linecap="round" stroke-linejoin="round"/>
<path d="M17.9999 14.9997C19.9301 14.9997 21.4949 13.4349 21.4949 11.5047C21.4949 9.57446 19.9301 8.00977 17.9999 8.00977C16.0697 8.00977 14.5049 9.57446 14.5049 11.5047C14.5049 13.4349 16.0697 14.9997 17.9999 14.9997Z" stroke="#FF3E39" stroke-width="2" stroke-linecap="round" stroke-linejoin="round"/>
<path d="M24 23.4895C24 20.7895 21.315 18.5996 18 18.5996C14.685 18.5996 12 20.7895 12 23.4895" stroke="#FF3E39" stroke-width="2" stroke-linecap="round" stroke-linejoin="round"/>
</svg>
